<svg xmlns="http://www.w3.org/2000/svg" xmlns:xlink="http://www.w3.org/1999/xlink" id="svg2522" width="64" height="64" version="1">
 <defs id="defs2524">
  <linearGradient id="linearGradient8838">
   <stop id="stop8840" offset="0" style="stop-color:#000000;stop-opacity:1"/>
   <stop id="stop8842" offset="1" style="stop-color:#000000;stop-opacity:0"/>
  </linearGradient>
  <radialGradient id="radialGradient2502" cx="62.625" cy="4.625" r="10.625" fx="62.625" fy="4.625" gradientTransform="matrix(3.0117645,0,0,0.75293992,-156.61176,52.517649)" gradientUnits="userSpaceOnUse" xlink:href="#linearGradient8838"/>
  <linearGradient id="linearGradient4873">
   <stop id="stop4875" offset="0" style="stop-color:#ffffff;stop-opacity:1"/>
   <stop id="stop4877" offset="1" style="stop-color:#ffffff;stop-opacity:0"/>
  </linearGradient>
  <linearGradient id="linearGradient2494" x1="63.397" x2="63.397" y1="-12.489" y2="5.468" gradientTransform="matrix(3.0873015,0,0,3.0872313,-160.0314,42.838764)" gradientUnits="userSpaceOnUse" xlink:href="#linearGradient4873"/>
  <linearGradient id="linearGradient4209" x1="26.098" x2="26.098" y1="44.889" y2="5.111" gradientTransform="matrix(1.4360305,0,0,1.4360305,-2.464732,-3.9007594)" gradientUnits="userSpaceOnUse" xlink:href="#linearGradient4203"/>
  <linearGradient id="linearGradient4203">
   <stop style="stop-color:#ffb12c;stop-opacity:1" id="stop4205" offset="0"/>
   <stop style="stop-color:#ffd896;stop-opacity:1" id="stop4207" offset="1"/>
  </linearGradient>
  <linearGradient id="linearGradient4193" x1="18.104" x2="18.104" y1="19.904" y2="43.881" gradientTransform="matrix(1.4999998,0,0,1.4999998,-3.9999964,-5.4999934)" gradientUnits="userSpaceOnUse" xlink:href="#linearGradient3242-187-536-7"/>
  <linearGradient id="linearGradient3242-187-536-7">
   <stop id="stop2778-5" offset="0" style="stop-color:#8badea;stop-opacity:1"/>
   <stop id="stop2784-3" offset="1" style="stop-color:#5652b5;stop-opacity:1"/>
  </linearGradient>
  <linearGradient id="linearGradient4234" x1="23" x2="23" y1="25" y2="60" gradientUnits="userSpaceOnUse" xlink:href="#linearGradient4873"/>
 </defs>
 <path style="display:inline;overflow:visible;visibility:visible;opacity:0.3;fill:url(#radialGradient2502);fill-opacity:1;fill-rule:evenodd;stroke:none;stroke-width:0.99999988;stroke-linecap:butt;stroke-linejoin:round;stroke-miterlimit:4;stroke-dasharray:none;stroke-dashoffset:0;stroke-opacity:1;marker:none;marker-start:none;marker-mid:none;marker-end:none" id="path8836" d="m 63.999993,56 c 0,4.418278 -14.326889,8 -31.999999,8 C 14.326885,64 -3.2e-6,60.418278 -3.2e-6,56 c 0,-4.418277 14.3268882,-7.999999 31.9999972,-7.999999 17.67311,0 31.999999,3.581722 31.999999,7.999999 l 0,0 z"/>
 <path style="color:#000000;font-style:normal;font-variant:normal;font-weight:normal;font-stretch:normal;font-size:medium;line-height:normal;font-family:sans-serif;text-indent:0;text-align:start;text-decoration:none;text-decoration-line:none;text-decoration-style:solid;text-decoration-color:#000000;letter-spacing:normal;word-spacing:normal;text-transform:none;direction:ltr;block-progression:tb;writing-mode:lr-tb;baseline-shift:baseline;text-anchor:start;white-space:normal;clip-rule:nonzero;display:inline;overflow:visible;visibility:visible;opacity:1;isolation:auto;mix-blend-mode:normal;color-interpolation:sRGB;color-interpolation-filters:linearRGB;solid-color:#000000;solid-opacity:1;fill:#deac67;fill-opacity:1;fill-rule:nonzero;stroke:none;stroke-width:1.003654;stroke-linecap:round;stroke-linejoin:round;stroke-miterlimit:4;stroke-dasharray:none;stroke-dashoffset:0;stroke-opacity:1;color-rendering:auto;image-rendering:auto;shape-rendering:auto;text-rendering:auto;enable-background:accumulate" id="path4165" d="M 32,3 C 15.983742,3 3,15.983742 3,32 c 0.00142,1.404012 0.1047673,2.801662 0.3074284,4.182323 0.4730414,3.222669 3.4673505,2.117355 4.9891758,5.019753 5.5325118,5.675793 13.8068788,9.522538 24.8069118,9.522533 8.320601,-10e-7 13.020298,0.779868 18.153295,-1.577809 1.384494,-1.522743 4.793148,-0.866914 5.813301,-2.62145 C 59.617421,42.144298 60.990806,37.138916 61,32 61,15.983742 48.016258,3 32,3 Z"/>
 <path style="fill:url(#linearGradient4209);fill-opacity:1;stroke:none;stroke-width:1.003654;stroke-linecap:round;stroke-linejoin:round;stroke-miterlimit:4;stroke-dasharray:none;stroke-dashoffset:0;stroke-opacity:1" id="path2555-5" d="M 32.000002,4.0000056 C 16.550571,4.0000056 4.0000026,16.55057 4.0000026,32.000003 4.0000026,47.449437 16.550571,60.000004 32.000002,60 47.449428,60 60.000013,47.449437 59.999997,32.000003 59.999997,16.55057 47.449428,4.0000056 32.000002,4.0000056 Z"/>
 <path style="opacity:0.4;fill:#ffffff;fill-opacity:1;stroke:none;stroke-width:2;stroke-linecap:round;stroke-linejoin:round;stroke-miterlimit:4;stroke-dasharray:none;stroke-opacity:1" id="circle4249" d="M 45 25 A 10 10 0 0 0 35 35 A 10 10 0 0 0 45 45 A 10 10 0 0 0 55 35 A 10 10 0 0 0 45 25 z"/>
 <path style="color:#000000;font-style:normal;font-variant:normal;font-weight:normal;font-stretch:normal;font-size:medium;line-height:normal;font-family:sans-serif;text-indent:0;text-align:start;text-decoration:none;text-decoration-line:none;text-decoration-style:solid;text-decoration-color:#000000;letter-spacing:normal;word-spacing:normal;text-transform:none;direction:ltr;block-progression:tb;writing-mode:lr-tb;baseline-shift:baseline;text-anchor:start;white-space:normal;clip-rule:nonzero;display:inline;overflow:visible;visibility:visible;opacity:0.4;isolation:auto;mix-blend-mode:normal;color-interpolation:sRGB;color-interpolation-filters:linearRGB;solid-color:#000000;solid-opacity:1;fill:url(#linearGradient2494);fill-opacity:1;fill-rule:nonzero;stroke:none;stroke-width:1.99999976;stroke-linecap:butt;stroke-linejoin:miter;stroke-miterlimit:4;stroke-dasharray:none;stroke-dashoffset:0;stroke-opacity:1;color-rendering:auto;image-rendering:auto;shape-rendering:auto;text-rendering:auto;enable-background:accumulate" id="path8655" d="M 32 4 C 16.547775 4 4 16.548065 4 32 C 4 47.452469 16.547715 60 32 60 C 47.450959 60 60 47.45263 60 32 L 60 31 L 59.898438 31 C 59.359194 16.021008 47.108486 4 32 4 z M 32 5 C 46.897662 5 59 17.102331 59 32 C 59.000015 46.89767 46.897662 59 32 59 C 17.102333 59.000004 5 46.89767 5 32 C 5 17.102331 17.102333 5 32 5 z"/>
 <circle style="opacity:1;fill:#ff9f30;fill-opacity:1;stroke:none;stroke-width:2;stroke-linecap:round;stroke-linejoin:round;stroke-miterlimit:4;stroke-dasharray:none;stroke-opacity:1" id="path4171" cx="45" cy="35" r="9"/>
 <path style="color:#000000;font-style:normal;font-variant:normal;font-weight:normal;font-stretch:normal;font-size:medium;line-height:normal;font-family:sans-serif;text-indent:0;text-align:start;text-decoration:none;text-decoration-line:none;text-decoration-style:solid;text-decoration-color:#000000;letter-spacing:normal;word-spacing:normal;text-transform:none;direction:ltr;block-progression:tb;writing-mode:lr-tb;baseline-shift:baseline;text-anchor:start;white-space:normal;clip-rule:nonzero;display:inline;overflow:visible;visibility:visible;opacity:0.1;isolation:auto;mix-blend-mode:normal;color-interpolation:sRGB;color-interpolation-filters:linearRGB;solid-color:#000000;solid-opacity:1;fill:#000000;fill-opacity:1;fill-rule:nonzero;stroke:none;stroke-width:2;stroke-linecap:round;stroke-linejoin:round;stroke-miterlimit:4;stroke-dasharray:none;stroke-dashoffset:0;stroke-opacity:1;color-rendering:auto;image-rendering:auto;shape-rendering:auto;text-rendering:auto;enable-background:accumulate" id="circle4251" d="M 45 26 A 8.9999991 8.9999991 0 0 0 36 35 A 8.9999991 8.9999991 0 0 0 45 44 A 8.9999991 8.9999991 0 0 0 54 35 A 8.9999991 8.9999991 0 0 0 45 26 z M 45 27 A 8 8 0 0 1 53 35 A 8 8 0 0 1 45 43 A 8 8 0 0 1 37 35 A 8 8 0 0 1 45 27 z"/>
 <path style="opacity:1;fill:url(#linearGradient4193);fill-opacity:1;stroke:none;stroke-width:2;stroke-linecap:round;stroke-linejoin:round;stroke-miterlimit:4;stroke-dasharray:none;stroke-opacity:1" id="path4168" d="M 23 24 C 15.378631 24 8.3612349 29.461474 3.3027344 35.951172 A 29 29 0 0 0 32 61 A 29 29 0 0 0 57.166016 46.365234 C 45.921278 35.0251 31.343636 24 23 24 z"/>
 <path style="color:#000000;font-style:normal;font-variant:normal;font-weight:normal;font-stretch:normal;font-size:medium;line-height:normal;font-family:sans-serif;text-indent:0;text-align:start;text-decoration:none;text-decoration-line:none;text-decoration-style:solid;text-decoration-color:#000000;letter-spacing:normal;word-spacing:normal;text-transform:none;direction:ltr;block-progression:tb;writing-mode:lr-tb;baseline-shift:baseline;text-anchor:start;white-space:normal;clip-rule:nonzero;display:inline;overflow:visible;visibility:visible;opacity:0.4;isolation:auto;mix-blend-mode:normal;color-interpolation:sRGB;color-interpolation-filters:linearRGB;solid-color:#000000;solid-opacity:1;fill:url(#linearGradient4234);fill-opacity:1;fill-rule:nonzero;stroke:none;stroke-width:4;stroke-linecap:round;stroke-linejoin:round;stroke-miterlimit:4;stroke-dasharray:none;stroke-dashoffset:0;stroke-opacity:1;color-rendering:auto;image-rendering:auto;shape-rendering:auto;text-rendering:auto;enable-background:accumulate" id="path4218" d="M 23 25 C 15.988547 25 9.3163086 30.043912 4.390625 36.234375 C 6.4805516 49.870445 18.162796 59.984582 32.001953 60 C 41.787437 59.990523 50.762077 54.815153 55.826172 46.486328 C 50.384439 41.061409 44.236905 35.733914 38.429688 31.755859 C 32.408558 27.631271 26.731359 25 23 25 z M 23 26 C 26.290899 26 31.915932 28.504692 37.865234 32.580078 C 43.38963 36.364395 49.234807 41.429214 54.490234 46.607422 C 49.535282 54.23332 41.16721 58.990435 32.001953 59 C 18.800864 58.985293 7.6789384 49.44701 5.4785156 36.517578 C 10.263256 30.638007 16.587289 26 23 26 z"/>
 <path style="color:#000000;font-style:normal;font-variant:normal;font-weight:normal;font-stretch:normal;font-size:medium;line-height:normal;font-family:sans-serif;text-indent:0;text-align:start;text-decoration:none;text-decoration-line:none;text-decoration-style:solid;text-decoration-color:#000000;letter-spacing:normal;word-spacing:normal;text-transform:none;direction:ltr;block-progression:tb;writing-mode:lr-tb;baseline-shift:baseline;text-anchor:start;white-space:normal;clip-rule:nonzero;display:inline;overflow:visible;visibility:visible;opacity:0.1;isolation:auto;mix-blend-mode:normal;color-interpolation:sRGB;color-interpolation-filters:linearRGB;solid-color:#000000;solid-opacity:1;fill:#000000;fill-opacity:1;fill-rule:nonzero;stroke:none;stroke-width:2;stroke-linecap:round;stroke-linejoin:round;stroke-miterlimit:4;stroke-dasharray:none;stroke-dashoffset:0;stroke-opacity:1;color-rendering:auto;image-rendering:auto;shape-rendering:auto;text-rendering:auto;enable-background:accumulate" id="path4211" d="M 23 24 C 15.378631 24 8.3612349 29.461474 3.3027344 35.951172 A 29 29 0 0 0 32 61 A 29 29 0 0 0 57.166016 46.365234 C 45.921278 35.0251 31.343636 24 23 24 z M 23 25 C 26.731359 25 32.408558 27.631271 38.429688 31.755859 C 44.236905 35.733914 50.384439 41.061409 55.826172 46.486328 C 50.762077 54.815153 41.787437 59.990523 32.001953 60 C 18.162796 59.984582 6.4805516 49.870445 4.390625 36.234375 C 9.3163086 30.043912 15.988547 25 23 25 z"/>
</svg>
