<svg xmlns="http://www.w3.org/2000/svg" id="svg2888" width="22" height="22" version="1.1">
 <defs id="defs2890">
  <linearGradient id="linearGradient3587-6-5">
   <stop id="stop3589-9-2" offset="0" style="stop-color:#000000;stop-opacity:1"/>
   <stop id="stop3591-7-4" offset="1" style="stop-color:#363636;stop-opacity:1"/>
  </linearGradient>
 </defs>
 <g id="layer1" transform="translate(0,-42)">
  <path id="path4160" d="m 10.999024,46 a 7.9737272,8 0 0 0 -7.9726568,8 7.9737272,8 0 0 0 0.064453,0.945312 c 0.148533,-0.409666 0.2456551,-0.448766 0.9472656,-1.099609 0.8668748,-0.804148 2.0486131,-1.493596 3.5117188,-1.730469 2.8417444,-0.46007 6.3553574,0.794967 10.4277344,5.751954 A 7.9737272,8 0 0 0 18.973633,54 7.9737272,8 0 0 0 10.999024,46 Z m 2.974609,3 a 2,2 0 0 1 2,2 2,2 0 0 1 -2,2 2,2 0 0 1 -2,-2 2,2 0 0 1 2,-2 z m -5.292969,4.958984 c -0.2956524,-0.0076 -0.5733462,0.01085 -0.8320312,0.05273 -1.0347391,0.167522 -1.8669633,0.659146 -2.5039062,1.25 C 4.8662114,55.705605 4.1165242,56.644 3.7216797,57.244136 A 7.9737272,8 0 0 0 10.999024,62 7.9737272,8 0 0 0 16.858399,59.412109 C 13.514794,55.339957 10.681964,54.010597 8.680664,53.958984 Z" style="opacity:0.3;fill:#ffffff;fill-opacity:1;fill-rule:nonzero;stroke:none;stroke-width:1.73095834;stroke-linecap:butt;stroke-linejoin:miter;stroke-miterlimit:4;stroke-dasharray:none;stroke-dashoffset:0;stroke-opacity:1"/>
  <rect style="fill:#bbdafd;fill-opacity:0;stroke:none" id="rect2901" width="64.17" height="63.993" x="0" y=".01" ry="0"/>
  <path style="fill:#3c3c3c;fill-opacity:1;fill-rule:nonzero;stroke:none;stroke-width:1.73095834;stroke-linecap:butt;stroke-linejoin:miter;stroke-miterlimit:4;stroke-dasharray:none;stroke-dashoffset:0;stroke-opacity:1;opacity:1" id="path2496" d="m 10.999024,45 a 7.9737272,8 0 0 0 -7.9726568,8 7.9737272,8 0 0 0 0.064453,0.945312 c 0.148533,-0.409666 0.2456551,-0.448766 0.9472656,-1.099609 0.8668748,-0.804148 2.0486131,-1.493596 3.5117188,-1.730469 2.8417444,-0.46007 6.3553574,0.794967 10.4277344,5.751954 A 7.9737272,8 0 0 0 18.973633,53 7.9737272,8 0 0 0 10.999024,45 Z m 2.974609,3 a 2,2 0 0 1 2,2 2,2 0 0 1 -2,2 2,2 0 0 1 -2,-2 2,2 0 0 1 2,-2 z m -5.292969,4.958984 c -0.2956524,-0.0076 -0.5733462,0.01085 -0.8320312,0.05273 -1.0347391,0.167522 -1.8669633,0.659146 -2.5039062,1.25 C 4.8662114,54.705605 4.1165242,55.644 3.7216797,56.244136 A 7.9737272,8 0 0 0 10.999024,61 7.9737272,8 0 0 0 16.858399,58.412109 C 13.514794,54.339957 10.681964,53.010597 8.680664,52.958984 Z"/>
 </g>
</svg>
