<svg xmlns="http://www.w3.org/2000/svg" xmlns:xlink="http://www.w3.org/1999/xlink" id="svg2522" width="32" height="32" version="1">
 <defs id="defs2524">
  <linearGradient id="linearGradient8838">
   <stop id="stop8840" offset="0" style="stop-color:#000000;stop-opacity:1"/>
   <stop id="stop8842" offset="1" style="stop-color:#000000;stop-opacity:0"/>
  </linearGradient>
  <radialGradient id="radialGradient2502" cx="62.625" cy="4.625" r="10.625" fx="62.625" fy="4.625" gradientTransform="matrix(1.5058824,0,0,0.37647,-78.305888,26.258824)" gradientUnits="userSpaceOnUse" xlink:href="#linearGradient8838"/>
  <linearGradient id="linearGradient4873">
   <stop id="stop4875" offset="0" style="stop-color:#ffffff;stop-opacity:1"/>
   <stop id="stop4877" offset="1" style="stop-color:#ffffff;stop-opacity:0"/>
  </linearGradient>
  <linearGradient id="linearGradient2494" x1="63.397" x2="63.397" y1="-12.489" y2="5.468" gradientTransform="matrix(1.5436509,0,0,1.5436158,-80.015712,21.419381)" gradientUnits="userSpaceOnUse" xlink:href="#linearGradient4873"/>
  <linearGradient id="linearGradient4209" x1="26.098" x2="26.098" y1="44.889" y2="5.111" gradientTransform="matrix(0.71801533,0,0,0.71801531,-1.2323677,-1.9503829)" gradientUnits="userSpaceOnUse" xlink:href="#linearGradient4203"/>
  <linearGradient id="linearGradient4203">
   <stop style="stop-color:#ffb12c;stop-opacity:1" id="stop4205" offset="0"/>
   <stop style="stop-color:#ffd896;stop-opacity:1" id="stop4207" offset="1"/>
  </linearGradient>
  <linearGradient id="linearGradient4193" x1="18.104" x2="18.104" y1="19.904" y2="43.881" gradientTransform="matrix(0.75,0,0,0.75,-2,-2.75)" gradientUnits="userSpaceOnUse" xlink:href="#linearGradient3242-187-536-7"/>
  <linearGradient id="linearGradient3242-187-536-7">
   <stop id="stop2778-5" offset="0" style="stop-color:#8badea;stop-opacity:1"/>
   <stop id="stop2784-3" offset="1" style="stop-color:#5652b5;stop-opacity:1"/>
  </linearGradient>
  <linearGradient id="linearGradient4247" x1="12" x2="12" y1="13" y2="30.165" gradientUnits="userSpaceOnUse" xlink:href="#linearGradient4873"/>
 </defs>
 <path style="display:inline;overflow:visible;visibility:visible;opacity:0.3;fill:url(#radialGradient2502);fill-opacity:1;fill-rule:evenodd;stroke:none;stroke-width:0.99999988;stroke-linecap:butt;stroke-linejoin:round;stroke-miterlimit:4;stroke-dasharray:none;stroke-dashoffset:0;stroke-opacity:1;marker:none;marker-start:none;marker-mid:none;marker-end:none" id="path8836" d="m 31.999998,28 c 0,2.209139 -7.163445,4 -16.000001,4 C 7.1634417,32 -3.2e-6,30.209139 -3.2e-6,28 c 0,-2.209139 7.1634449,-4 16.0000002,-4 8.836556,0 16.000001,1.790861 16.000001,4 l 0,0 z"/>
 <path style="color:#000000;font-style:normal;font-variant:normal;font-weight:normal;font-stretch:normal;font-size:medium;line-height:normal;font-family:sans-serif;text-indent:0;text-align:start;text-decoration:none;text-decoration-line:none;text-decoration-style:solid;text-decoration-color:#000000;letter-spacing:normal;word-spacing:normal;text-transform:none;direction:ltr;block-progression:tb;writing-mode:lr-tb;baseline-shift:baseline;text-anchor:start;white-space:normal;clip-rule:nonzero;display:inline;overflow:visible;visibility:visible;opacity:1;isolation:auto;mix-blend-mode:normal;color-interpolation:sRGB;color-interpolation-filters:linearRGB;solid-color:#000000;solid-opacity:1;fill:#deac67;fill-opacity:1;fill-rule:nonzero;stroke:none;stroke-width:1.003654;stroke-linecap:round;stroke-linejoin:round;stroke-miterlimit:4;stroke-dasharray:none;stroke-dashoffset:0;stroke-opacity:1;color-rendering:auto;image-rendering:auto;shape-rendering:auto;text-rendering:auto;enable-background:accumulate" id="path4165" d="M 16,1 C 7.7273455,1 1,7.727344 1,16 c 0,0.935026 0.085941,1.850311 0.2503413,2.738373 1.2901315,6.969074 7.9635162,6.624215 15.3011447,6.624212 5.4798,-1e-6 9.730079,2.685637 12.34768,-1.711795 C 30.23326,21.409581 31.000002,18.792853 31,16 30.999992,7.727344 24.272652,1 16,1 Z"/>
 <path style="fill:url(#linearGradient4209);fill-opacity:1;stroke:none;stroke-width:1.003654;stroke-linecap:round;stroke-linejoin:round;stroke-miterlimit:4;stroke-dasharray:none;stroke-dashoffset:0;stroke-opacity:1" id="path2555-5" d="M 16.000001,2 C 8.2752848,2 1.9999999,8.2752827 1.9999999,16 c 0,7.724718 6.2752849,14.000002 14.0000011,14 C 23.724715,30 30.000008,23.724718 30,16 30,8.2752827 23.724715,2 16.000001,2 Z"/>
 <circle id="circle4249" cx="22.5" cy="17.5" r="5.5" style="opacity:0.4;fill:#ffffff;fill-opacity:1;stroke:none;stroke-width:2;stroke-linecap:round;stroke-linejoin:round;stroke-miterlimit:4;stroke-dasharray:none;stroke-opacity:1"/>
 <path style="opacity:0.4;fill:none;fill-opacity:1;fill-rule:nonzero;stroke:url(#linearGradient2494);stroke-width:1;stroke-miterlimit:4;stroke-dasharray:none;stroke-opacity:1" id="path8655" d="M 29.5,15.999522 C 29.5,23.455607 23.455399,29.5 16.000172,29.5 8.5442598,29.5 2.5,23.455539 2.5,15.999522 2.5,8.5437822 8.5442598,2.5000011 16.000172,2.5000011 23.455399,2.5000011 29.5,8.5437822 29.5,15.999522 l 0,0 z"/>
 <circle style="opacity:1;fill:#ff9f30;fill-opacity:1;stroke:none;stroke-width:2;stroke-linecap:round;stroke-linejoin:round;stroke-miterlimit:4;stroke-dasharray:none;stroke-opacity:1" id="path4171" cx="22.5" cy="17.5" r="4.5"/>
 <path style="color:#000000;font-style:normal;font-variant:normal;font-weight:normal;font-stretch:normal;font-size:medium;line-height:normal;font-family:sans-serif;text-indent:0;text-align:start;text-decoration:none;text-decoration-line:none;text-decoration-style:solid;text-decoration-color:#000000;letter-spacing:normal;word-spacing:normal;text-transform:none;direction:ltr;block-progression:tb;writing-mode:lr-tb;baseline-shift:baseline;text-anchor:start;white-space:normal;clip-rule:nonzero;display:inline;overflow:visible;visibility:visible;opacity:0.1;isolation:auto;mix-blend-mode:normal;color-interpolation:sRGB;color-interpolation-filters:linearRGB;solid-color:#000000;solid-opacity:1;fill:#000000;fill-opacity:1;fill-rule:nonzero;stroke:none;stroke-width:2;stroke-linecap:round;stroke-linejoin:round;stroke-miterlimit:4;stroke-dasharray:none;stroke-dashoffset:0;stroke-opacity:1;color-rendering:auto;image-rendering:auto;shape-rendering:auto;text-rendering:auto;enable-background:accumulate" id="circle4251" d="M 22.5,13 A 4.5,4.5 0 0 0 18,17.5 4.5,4.5 0 0 0 22.5,22 4.5,4.5 0 0 0 27,17.5 4.5,4.5 0 0 0 22.5,13 Z m 0,1 C 24.444841,14 26,15.555159 26,17.5 26,19.444841 24.444841,21 22.5,21 20.555159,21 19,19.444841 19,17.5 19,15.555159 20.555159,14 22.5,14 Z"/>
 <path style="opacity:1;fill:url(#linearGradient4193);fill-opacity:1;stroke:none;stroke-width:2;stroke-linecap:round;stroke-linejoin:round;stroke-miterlimit:4;stroke-dasharray:none;stroke-opacity:1" id="path4168" d="M 11.5,12 C 7.4681597,12 3.7728942,15.055915 1.2197266,18.544433 2.4317397,25.608393 8.594902,31.000002 16,31 21.520334,31 26.339031,27.995367 28.943359,23.543945 23.276244,17.749026 15.760458,12 11.5,12 Z"/>
 <path style="color:#000000;font-style:normal;font-variant:normal;font-weight:normal;font-stretch:normal;font-size:medium;line-height:normal;font-family:sans-serif;text-indent:0;text-align:start;text-decoration:none;text-decoration-line:none;text-decoration-style:solid;text-decoration-color:#000000;letter-spacing:normal;word-spacing:normal;text-transform:none;direction:ltr;block-progression:tb;writing-mode:lr-tb;baseline-shift:baseline;text-anchor:start;white-space:normal;clip-rule:nonzero;display:inline;overflow:visible;visibility:visible;opacity:0.4;isolation:auto;mix-blend-mode:normal;color-interpolation:sRGB;color-interpolation-filters:linearRGB;solid-color:#000000;solid-opacity:1;fill:url(#linearGradient4247);fill-opacity:1;fill-rule:nonzero;stroke:none;stroke-width:4;stroke-linecap:round;stroke-linejoin:round;stroke-miterlimit:4;stroke-dasharray:none;stroke-dashoffset:0;stroke-opacity:1;color-rendering:auto;image-rendering:auto;shape-rendering:auto;text-rendering:auto;enable-background:accumulate" id="path4231" d="M 11.5,13 C 8.1121006,13 4.7716982,15.595882 2.34375,18.761719 3.6391025,25.148362 9.2256898,30.000002 16,30 20.877554,30 25.09809,27.444433 27.605469,23.65625 24.948684,21.002387 21.96027,18.384342 19.125,16.419922 16.076613,14.307844 13.180432,13 11.5,13 Z m 0,1 c 1.230635,0 4.077807,1.179652 7.054688,3.242188 2.554574,1.769939 5.24414,4.122027 7.710937,6.527343 C 23.892578,26.903086 20.233383,29 16,29 9.8882859,29.000002 4.8966438,24.728198 3.5,19.0625 5.785169,16.239375 8.72563,14 11.5,14 Z"/>
 <path style="color:#000000;font-style:normal;font-variant:normal;font-weight:normal;font-stretch:normal;font-size:medium;line-height:normal;font-family:sans-serif;text-indent:0;text-align:start;text-decoration:none;text-decoration-line:none;text-decoration-style:solid;text-decoration-color:#000000;letter-spacing:normal;word-spacing:normal;text-transform:none;direction:ltr;block-progression:tb;writing-mode:lr-tb;baseline-shift:baseline;text-anchor:start;white-space:normal;clip-rule:nonzero;display:inline;overflow:visible;visibility:visible;opacity:0.1;isolation:auto;mix-blend-mode:normal;color-interpolation:sRGB;color-interpolation-filters:linearRGB;solid-color:#000000;solid-opacity:1;fill:#000000;fill-opacity:1;fill-rule:nonzero;stroke:none;stroke-width:2;stroke-linecap:round;stroke-linejoin:round;stroke-miterlimit:4;stroke-dasharray:none;stroke-dashoffset:0;stroke-opacity:1;color-rendering:auto;image-rendering:auto;shape-rendering:auto;text-rendering:auto;enable-background:accumulate" id="path4224" d="M 11.5,12 C 7.4681597,12 3.7738707,15.056404 1.2207031,18.544922 2.4327162,25.608882 8.594902,31.000002 16,31 21.520334,31 26.339031,27.994391 28.943359,23.542969 23.276244,17.74805 15.760458,12 11.5,12 Z m 0,1 c 1.680432,0 4.576613,1.307844 7.625,3.419922 2.83527,1.96442 5.823684,4.582465 8.480469,7.236328 C 25.09809,27.444433 20.877554,30 16,30 9.2256898,30.000002 3.6391025,25.148362 2.34375,18.761719 4.7716982,15.595882 8.1121006,13 11.5,13 Z"/>
</svg>
