<svg xmlns="http://www.w3.org/2000/svg" xmlns:xlink="http://www.w3.org/1999/xlink" id="svg3675" width="96" height="96" version="1">
 <defs id="defs3677">
  <linearGradient id="linearGradient4203">
   <stop style="stop-color:#ffb12c;stop-opacity:1" id="stop4205" offset="0"/>
   <stop style="stop-color:#ffd896;stop-opacity:1" id="stop4207" offset="1"/>
  </linearGradient>
  <linearGradient id="linearGradient8838">
   <stop id="stop8840" offset="0" style="stop-color:#000000;stop-opacity:1"/>
   <stop id="stop8842" offset="1" style="stop-color:#000000;stop-opacity:0"/>
  </linearGradient>
  <linearGradient id="linearGradient3242-187-536">
   <stop id="stop2778" offset="0" style="stop-color:#8badea;stop-opacity:1"/>
   <stop id="stop2784" offset="1" style="stop-color:#5652b5;stop-opacity:1"/>
  </linearGradient>
  <linearGradient id="linearGradient4873">
   <stop id="stop4875" offset="0" style="stop-color:#ffffff;stop-opacity:1"/>
   <stop id="stop4877" offset="1" style="stop-color:#ffffff;stop-opacity:0"/>
  </linearGradient>
  <linearGradient id="linearGradient2407" x1="63.397" x2="63.397" y1="-12.489" y2="5.468" gradientTransform="matrix(4.230747,0,0,4.2306506,-215.15418,64.853118)" gradientUnits="userSpaceOnUse" xlink:href="#linearGradient4873"/>
  <radialGradient id="radialGradient2415" cx="62.625" cy="4.625" r="10.625" fx="62.625" fy="4.625" gradientTransform="matrix(4.3294118,0,0,1.5058804,-223.12942,73.035294)" gradientUnits="userSpaceOnUse" xlink:href="#linearGradient8838"/>
  <linearGradient id="linearGradient4193" x1="18.104" x2="18.104" y1="19.904" y2="43.881" gradientTransform="matrix(1.95,0,0,1.95,1.2,1.25)" gradientUnits="userSpaceOnUse" xlink:href="#linearGradient3242-187-536"/>
  <linearGradient id="linearGradient4209" x1="26.098" x2="26.098" y1="44.889" y2="5.111" gradientTransform="matrix(1.9488987,0,0,1.9488987,1.2264303,1.277532)" gradientUnits="userSpaceOnUse" xlink:href="#linearGradient4203"/>
  <linearGradient id="linearGradient4224" x1="37" x2="37" y1="41" y2="88" gradientUnits="userSpaceOnUse" xlink:href="#linearGradient4873"/>
 </defs>
 <path style="display:inline;overflow:visible;visibility:visible;opacity:0.3;fill:url(#radialGradient2415);fill-opacity:1;fill-rule:evenodd;stroke:none;stroke-width:0.99999988;stroke-linecap:butt;stroke-linejoin:round;stroke-miterlimit:4;stroke-dasharray:none;stroke-dashoffset:0;stroke-opacity:1;marker:none;marker-start:none;marker-mid:none;marker-end:none" id="path8836" d="m 93.999994,80 c 0,8.836556 -20.594904,16 -46,16 C 22.594898,96 1.9999936,88.836556 1.9999936,80 c 0,-8.836556 20.5949044,-16 46.0000004,-16 25.405096,0 46,7.163444 46,16 l 0,0 z"/>
 <path style="color:#000000;font-style:normal;font-variant:normal;font-weight:normal;font-stretch:normal;font-size:medium;line-height:normal;font-family:sans-serif;text-indent:0;text-align:start;text-decoration:none;text-decoration-line:none;text-decoration-style:solid;text-decoration-color:#000000;letter-spacing:normal;word-spacing:normal;text-transform:none;direction:ltr;block-progression:tb;writing-mode:lr-tb;baseline-shift:baseline;text-anchor:start;white-space:normal;clip-rule:nonzero;display:inline;overflow:visible;visibility:visible;opacity:1;isolation:auto;mix-blend-mode:normal;color-interpolation:sRGB;color-interpolation-filters:linearRGB;solid-color:#000000;solid-opacity:1;fill:#deac67;fill-opacity:1;fill-rule:nonzero;stroke:none;stroke-width:1.003654;stroke-linecap:round;stroke-linejoin:round;stroke-miterlimit:4;stroke-dasharray:none;stroke-dashoffset:0;stroke-opacity:1;color-rendering:auto;image-rendering:auto;shape-rendering:auto;text-rendering:auto;enable-background:accumulate" id="path4165" d="M 48,11 C 26.491098,11 9,28.491094 9,50 c 0,2.431069 0.2234472,4.81081 0.6508874,7.11977 3.3543416,18.119591 20.7051416,17.222957 39.7829766,17.222952 14.24748,-4e-6 25.298206,6.982655 32.103968,-4.450669 C 85.006476,64.064909 87.000006,57.261418 87,50 86.99998,28.491094 69.508896,11 48,11 Z"/>
 <path style="fill:url(#linearGradient4209);fill-opacity:1;stroke:none;stroke-width:1.003654;stroke-linecap:round;stroke-linejoin:round;stroke-miterlimit:4;stroke-dasharray:none;stroke-dashoffset:0;stroke-opacity:1" id="path2555" d="M 48.000004,12 C 27.032916,12 9.9999998,29.03291 9.9999998,50 c 0,20.96709 17.0329162,38.000006 38.0000042,38 C 68.967084,88 86.00002,70.96709 86,50 86,29.03291 68.967084,12 48.000004,12 Z"/>
 <path style="color:#000000;font-style:normal;font-variant:normal;font-weight:normal;font-stretch:normal;font-size:medium;line-height:normal;font-family:sans-serif;text-indent:0;text-align:start;text-decoration:none;text-decoration-line:none;text-decoration-style:solid;text-decoration-color:#000000;letter-spacing:normal;word-spacing:normal;text-transform:none;direction:ltr;block-progression:tb;writing-mode:lr-tb;baseline-shift:baseline;text-anchor:start;white-space:normal;clip-rule:nonzero;display:inline;overflow:visible;visibility:visible;opacity:0.4;isolation:auto;mix-blend-mode:normal;color-interpolation:sRGB;color-interpolation-filters:linearRGB;solid-color:#000000;solid-opacity:1;fill:url(#linearGradient2407);fill-opacity:1;fill-rule:nonzero;stroke:none;stroke-width:2;stroke-linecap:butt;stroke-linejoin:miter;stroke-miterlimit:4;stroke-dasharray:none;stroke-dashoffset:0;stroke-opacity:1;color-rendering:auto;image-rendering:auto;shape-rendering:auto;text-rendering:auto;enable-background:accumulate" id="path8655" d="M 48 12 C 27.024878 12 10 29.02334 10 49.998047 C 10 70.973492 27.024817 88 48 88 C 68.973356 88 86 70.973705 86 49.998047 L 86 48.998047 L 85.898438 48.998047 C 85.354821 28.496226 68.630775 12 48 12 z M 48 13 A 37 37 0 0 1 85 50 A 37 37 0 0 1 48 87 A 37 37 0 0 1 11 50 A 37 37 0 0 1 48 13 z"/>
 <path style="opacity:0.4;fill:#ffffff;fill-opacity:1;stroke:none;stroke-width:2;stroke-linecap:round;stroke-linejoin:round;stroke-miterlimit:4;stroke-dasharray:none;stroke-opacity:1" id="circle4243" d="M 66 41 A 13 13 0 0 0 53 54 A 13 13 0 0 0 66 67 A 13 13 0 0 0 79 54 A 13 13 0 0 0 66 41 z"/>
 <circle style="opacity:1;fill:#ff9f30;fill-opacity:1;stroke:none;stroke-width:2;stroke-linecap:round;stroke-linejoin:round;stroke-miterlimit:4;stroke-dasharray:none;stroke-opacity:1" id="path4171" cx="66" cy="54" r="12"/>
 <path style="color:#000000;font-style:normal;font-variant:normal;font-weight:normal;font-stretch:normal;font-size:medium;line-height:normal;font-family:sans-serif;text-indent:0;text-align:start;text-decoration:none;text-decoration-line:none;text-decoration-style:solid;text-decoration-color:#000000;letter-spacing:normal;word-spacing:normal;text-transform:none;direction:ltr;block-progression:tb;writing-mode:lr-tb;baseline-shift:baseline;text-anchor:start;white-space:normal;clip-rule:nonzero;display:inline;overflow:visible;visibility:visible;opacity:0.1;isolation:auto;mix-blend-mode:normal;color-interpolation:sRGB;color-interpolation-filters:linearRGB;solid-color:#000000;solid-opacity:1;fill:#000000;fill-opacity:1;fill-rule:nonzero;stroke:none;stroke-width:2;stroke-linecap:round;stroke-linejoin:round;stroke-miterlimit:4;stroke-dasharray:none;stroke-dashoffset:0;stroke-opacity:1;color-rendering:auto;image-rendering:auto;shape-rendering:auto;text-rendering:auto;enable-background:accumulate" id="circle4236" d="M 66 42 A 12 12 0 0 0 54 54 A 12 12 0 0 0 66 66 A 12 12 0 0 0 78 54 A 12 12 0 0 0 66 42 z M 66 43 A 11 11 0 0 1 77 54 A 11 11 0 0 1 66 65 A 11 11 0 0 1 55 54 A 11 11 0 0 1 66 43 z"/>
 <path style="opacity:1;fill:url(#linearGradient4193);fill-opacity:1;stroke:none;stroke-width:2;stroke-linecap:round;stroke-linejoin:round;stroke-miterlimit:4;stroke-dasharray:none;stroke-opacity:1" id="path4168" d="M 36.3,40 C 25.817215,40 16.209525,47.545379 9.5712892,56.615527 12.722523,74.981822 28.746745,89.000006 48,89 62.352868,89 74.881481,81.187955 81.652733,69.614258 66.918235,54.547466 47.377191,40 36.3,40 Z"/>
 <path style="color:#000000;font-style:normal;font-variant:normal;font-weight:normal;font-stretch:normal;font-size:medium;line-height:normal;font-family:sans-serif;text-indent:0;text-align:start;text-decoration:none;text-decoration-line:none;text-decoration-style:solid;text-decoration-color:#000000;letter-spacing:normal;word-spacing:normal;text-transform:none;direction:ltr;block-progression:tb;writing-mode:lr-tb;baseline-shift:baseline;text-anchor:start;white-space:normal;clip-rule:nonzero;display:inline;overflow:visible;visibility:visible;opacity:0.4;isolation:auto;mix-blend-mode:normal;color-interpolation:sRGB;color-interpolation-filters:linearRGB;solid-color:#000000;solid-opacity:1;fill:url(#linearGradient4224);fill-opacity:1;fill-rule:nonzero;stroke:none;stroke-width:4;stroke-linecap:round;stroke-linejoin:round;stroke-miterlimit:4;stroke-dasharray:none;stroke-dashoffset:0;stroke-opacity:1;color-rendering:auto;image-rendering:auto;shape-rendering:auto;text-rendering:auto;enable-background:accumulate" id="path4208" d="M 36.300781 41 C 26.432012 41 17.178873 48.120159 10.667969 56.869141 C 13.914382 74.548045 29.384544 88.000006 48 88 C 61.70838 88 73.66416 80.667354 80.349609 69.761719 C 73.150705 62.467047 64.879189 55.317105 57.042969 49.984375 C 49.004259 44.513846 41.401616 41 36.300781 41 z M 36.300781 42 C 40.963856 42 48.514772 45.389705 56.480469 50.810547 C 64.042242 55.956509 72.018682 62.855676 79.044922 69.910156 C 72.458368 80.149598 61.062912 87 48 87 C 30.022463 87.000006 15.102191 74.112718 11.765625 57.121094 C 18.14354 48.701839 27.038854 42 36.300781 42 z"/>
 <path style="color:#000000;font-style:normal;font-variant:normal;font-weight:normal;font-stretch:normal;font-size:medium;line-height:normal;font-family:sans-serif;text-indent:0;text-align:start;text-decoration:none;text-decoration-line:none;text-decoration-style:solid;text-decoration-color:#000000;letter-spacing:normal;word-spacing:normal;text-transform:none;direction:ltr;block-progression:tb;writing-mode:lr-tb;baseline-shift:baseline;text-anchor:start;white-space:normal;clip-rule:nonzero;display:inline;overflow:visible;visibility:visible;opacity:0.1;isolation:auto;mix-blend-mode:normal;color-interpolation:sRGB;color-interpolation-filters:linearRGB;solid-color:#000000;solid-opacity:1;fill:#000000;fill-opacity:1;fill-rule:nonzero;stroke:none;stroke-width:2;stroke-linecap:round;stroke-linejoin:round;stroke-miterlimit:4;stroke-dasharray:none;stroke-dashoffset:0;stroke-opacity:1;color-rendering:auto;image-rendering:auto;shape-rendering:auto;text-rendering:auto;enable-background:accumulate" id="path4201" d="M 36.300781 40 C 25.817996 40 16.210501 47.545086 9.5722656 56.615234 C 12.723499 74.981529 28.746745 89.000006 48 89 C 62.352868 89 74.881092 81.188931 81.652344 69.615234 C 66.917846 54.548442 47.377972 40 36.300781 40 z M 36.300781 41 C 41.401616 41 49.004259 44.513846 57.042969 49.984375 C 64.879189 55.317105 73.150705 62.467047 80.349609 69.761719 C 73.66416 80.667354 61.70838 88 48 88 C 29.384544 88.000006 13.914382 74.548045 10.667969 56.869141 C 17.178873 48.120159 26.432012 41 36.300781 41 z"/>
</svg>
