<?xml version="1.0" encoding="UTF-8" standalone="no"?>
<!-- Created with Inkscape (http://www.inkscape.org/) -->

<svg
   xmlns:dc="http://purl.org/dc/elements/1.1/"
   xmlns:cc="http://creativecommons.org/ns#"
   xmlns:rdf="http://www.w3.org/1999/02/22-rdf-syntax-ns#"
   xmlns:svg="http://www.w3.org/2000/svg"
   xmlns="http://www.w3.org/2000/svg"
   xmlns:sodipodi="http://sodipodi.sourceforge.net/DTD/sodipodi-0.dtd"
   xmlns:inkscape="http://www.inkscape.org/namespaces/inkscape"
   width="16"
   height="16"
   id="svg2888"
   version="1.1"
   inkscape:version="0.91 r13725"
   sodipodi:docname="fluxgui-panel.svg"
   inkscape:export-filename="/home/zach/lookit.png"
   inkscape:export-xdpi="30.9375"
   inkscape:export-ydpi="30.9375"
   sodipodi:version="0.32"
   inkscape:output_extension="org.inkscape.output.svg.inkscape">
  <defs
     id="defs2890">
    <inkscape:perspective
       sodipodi:type="inkscape:persp3d"
       inkscape:vp_x="0 : 32 : 1"
       inkscape:vp_y="0 : 1000 : 0"
       inkscape:vp_z="64 : 32 : 1"
       inkscape:persp3d-origin="32 : 21.333333 : 1"
       id="perspective2896" />
    <inkscape:perspective
       id="perspective3281"
       inkscape:persp3d-origin="372.04724 : 350.78739 : 1"
       inkscape:vp_z="744.09448 : 526.18109 : 1"
       inkscape:vp_y="0 : 1000 : 0"
       inkscape:vp_x="0 : 526.18109 : 1"
       sodipodi:type="inkscape:persp3d" />
  </defs>
  <sodipodi:namedview
     id="base"
     pagecolor="#ffffff"
     bordercolor="#666666"
     borderopacity="1.0"
     inkscape:pageopacity="0.0"
     inkscape:pageshadow="2"
     inkscape:zoom="21.12"
     inkscape:cx="12.375965"
     inkscape:cy="8.9936192"
     inkscape:current-layer="layer1"
     showgrid="true"
     inkscape:document-units="px"
     inkscape:grid-bbox="true"
     inkscape:window-width="1920"
     inkscape:window-height="1018"
     inkscape:window-x="0"
     inkscape:window-y="32"
     inkscape:window-maximized="1">
    <inkscape:grid
       type="xygrid"
       id="grid4144" />
  </sodipodi:namedview>
  <metadata
     id="metadata2893">
    <rdf:RDF>
      <cc:Work
         rdf:about="">
        <dc:format>image/svg+xml</dc:format>
        <dc:type
           rdf:resource="http://purl.org/dc/dcmitype/StillImage" />
        <dc:title></dc:title>
      </cc:Work>
    </rdf:RDF>
  </metadata>
  <g
     id="layer1"
     inkscape:label="Layer 1"
     inkscape:groupmode="layer"
     transform="translate(0,-48)">
    <rect
       style="fill:#bbdafd;fill-opacity:0;stroke:none"
       id="rect2901"
       width="64.169937"
       height="63.993164"
       x="0"
       y="0.0068368739"
       ry="0" />
    <path
       style="fill:#cccccc;fill-opacity:1;fill-rule:nonzero;stroke:none;stroke-width:1.73095834;stroke-linecap:butt;stroke-linejoin:miter;stroke-miterlimit:4;stroke-dasharray:none;stroke-dashoffset:0;stroke-opacity:1"
       d="M 8 1 A 7 7 0 0 0 1.0058594 7.875 C 1.0213201 7.8607071 1.0210209 7.8606275 1.0371094 7.8457031 C 1.9039842 7.0415551 3.0857224 6.3521074 4.5488281 6.1152344 C 7.2248089 5.682001 10.504262 6.8106096 14.277344 11.078125 A 7 7 0 0 0 15 8 A 7 7 0 0 0 8 1 z M 10.974609 3 A 2 2 0 0 1 12.974609 5 A 2 2 0 0 1 10.974609 7 A 2 2 0 0 1 8.9726562 5 A 2 2 0 0 1 10.974609 3 z M 5.6796875 7.9589844 C 5.3840351 7.9513844 5.1063413 7.9698388 4.8476562 8.0117188 C 3.8129172 8.1792407 2.982646 8.6708647 2.3457031 9.2617188 C 2.0767962 9.5111682 1.735332 9.9102287 1.40625 10.324219 A 7 7 0 0 0 8 15 A 7 7 0 0 0 13.205078 12.667969 C 10.148317 9.2006019 7.548016 8.0071681 5.6796875 7.9589844 z "
       transform="translate(0,48)"
       id="path2496" />
  </g>
</svg>
