<svg xmlns="http://www.w3.org/2000/svg" id="svg2888" width="16" height="16" version="1.1">
 <g id="layer1" transform="translate(0,-48)">
  <rect style="fill:#bbdafd;fill-opacity:0;stroke:none" id="rect2901" width="64.17" height="63.993" x="0" y=".01" ry="0"/>
  <path style="fill:#cccccc;fill-opacity:1;fill-rule:nonzero;stroke:none;stroke-width:1.73095834;stroke-linecap:butt;stroke-linejoin:miter;stroke-miterlimit:4;stroke-dasharray:none;stroke-dashoffset:0;stroke-opacity:1" id="path2496" d="M 8 1 A 7 7 0 0 0 1.0058594 7.875 C 1.0213201 7.8607071 1.0210209 7.8606275 1.0371094 7.8457031 C 1.9039842 7.0415551 3.0857224 6.3521074 4.5488281 6.1152344 C 7.2248089 5.682001 10.504262 6.8106096 14.277344 11.078125 A 7 7 0 0 0 15 8 A 7 7 0 0 0 8 1 z M 10.974609 3 A 2 2 0 0 1 12.974609 5 A 2 2 0 0 1 10.974609 7 A 2 2 0 0 1 8.9726562 5 A 2 2 0 0 1 10.974609 3 z M 5.6796875 7.9589844 C 5.3840351 7.9513844 5.1063413 7.9698388 4.8476562 8.0117188 C 3.8129172 8.1792407 2.982646 8.6708647 2.3457031 9.2617188 C 2.0767962 9.5111682 1.735332 9.9102287 1.40625 10.324219 A 7 7 0 0 0 8 15 A 7 7 0 0 0 13.205078 12.667969 C 10.148317 9.2006019 7.548016 8.0071681 5.6796875 7.9589844 z" transform="translate(0,48)"/>
 </g>
</svg>
