<svg xmlns="http://www.w3.org/2000/svg" xmlns:xlink="http://www.w3.org/1999/xlink" id="svg2" width="22" height="22" version="1">
 <defs id="defs4">
  <linearGradient id="linearGradient4238">
   <stop style="stop-color:#ffd896;stop-opacity:1" id="stop4242" offset="0"/>
   <stop style="stop-color:#ffb12c;stop-opacity:1" id="stop4240" offset="1"/>
  </linearGradient>
  <linearGradient id="linearGradient8838">
   <stop id="stop8840" offset="0" style="stop-color:black;stop-opacity:1"/>
   <stop id="stop8842" offset="1" style="stop-color:black;stop-opacity:0"/>
  </linearGradient>
  <radialGradient id="radialGradient2493" cx="62.625" cy="4.625" r="10.625" fx="62.625" fy="4.625" gradientTransform="matrix(1.0352941,0,0,0.28235255,-53.835293,17.694118)" gradientUnits="userSpaceOnUse" xlink:href="#linearGradient8838"/>
  <linearGradient id="linearGradient3736" x1="28.771" x2="28.771" y1="12.918" y2="45.348" gradientTransform="matrix(0.4670924,0,0,0.4670923,0.2887714,-0.7117061)" gradientUnits="userSpaceOnUse" xlink:href="#linearGradient4238"/>
  <linearGradient id="linearGradient4873">
   <stop id="stop4875" offset="0" style="stop-color:white;stop-opacity:1"/>
   <stop id="stop4877" offset="1" style="stop-color:white;stop-opacity:0"/>
  </linearGradient>
  <linearGradient id="linearGradient3630" x1="63.397" x2="63.397" y1="-9.383" y2="7.443" gradientTransform="matrix(1.0299253,0,0,1.0299249,-52.562768,14.114324)" gradientUnits="userSpaceOnUse" xlink:href="#linearGradient4873"/>
  <linearGradient id="linearGradient4193" x1="18.104" x2="18.104" y1="19.904" y2="43.881" gradientTransform="matrix(0.525,0,0,0.525,-1.0999981,-2.6249999)" gradientUnits="userSpaceOnUse" xlink:href="#linearGradient3242-187-536"/>
  <linearGradient id="linearGradient3242-187-536">
   <stop id="stop2778" offset="0" style="stop-color:#8badea;stop-opacity:1"/>
   <stop id="stop2784" offset="1" style="stop-color:#5652b5;stop-opacity:1"/>
  </linearGradient>
  <linearGradient id="linearGradient4279" x1="10" x2="10" y1="11" y2="21.886" gradientTransform="translate(-0.9999981,-2)" gradientUnits="userSpaceOnUse" xlink:href="#linearGradient4873"/>
 </defs>
 <path style="color:#000000;font-style:normal;font-variant:normal;font-weight:normal;font-stretch:normal;font-size:medium;line-height:normal;font-family:sans-serif;text-indent:0;text-align:start;text-decoration:none;text-decoration-line:none;text-decoration-style:solid;text-decoration-color:#000000;letter-spacing:normal;word-spacing:normal;text-transform:none;direction:ltr;block-progression:tb;writing-mode:lr-tb;baseline-shift:baseline;text-anchor:start;white-space:normal;clip-rule:nonzero;display:inline;overflow:visible;visibility:visible;opacity:1;isolation:auto;mix-blend-mode:normal;color-interpolation:sRGB;color-interpolation-filters:linearRGB;solid-color:#000000;solid-opacity:1;fill:#deac67;fill-opacity:1;fill-rule:nonzero;stroke:none;stroke-width:0.99994898;stroke-linecap:round;stroke-linejoin:round;stroke-miterlimit:4;stroke-dasharray:none;stroke-dashoffset:0;stroke-opacity:1;color-rendering:auto;image-rendering:auto;shape-rendering:auto;text-rendering:auto;enable-background:accumulate" id="path4337" d="M 11.49219,0 C 5.7029738,0 1.0000019,4.7029696 1.0000019,10.492188 c 0,0.688529 0.06651,1.361914 0.1934516,2.014018 0.9403919,4.830847 5.6037173,4.225503 10.7052405,4.225501 3.742063,-1e-6 6.629659,2.297839 8.49184,-0.659115 1.019206,-1.618395 1.60947,-3.532303 1.609468,-5.580404 C 21.999997,4.7020216 17.281404,0 11.49219,0 Z"/>
 <path style="display:inline;overflow:visible;visibility:visible;opacity:0.56043958;fill:url(#radialGradient2493);fill-opacity:1;fill-rule:evenodd;stroke:none;stroke-width:0.99999988;marker:none" id="path2774" d="M 22,19 A 11,3 0 0 1 10e-8,19 11,3 0 1 1 22,19 Z"/>
 <path id="path2555" d="m 11.492539,1.0000006 c -5.2431014,0 -9.4925371,4.2494348 -9.4925371,9.4925384 0,5.243102 4.2494357,9.507463 9.4925371,9.507461 5.2431,0 9.507467,-4.26436 9.507463,-9.507462 0,-5.2431026 -4.264362,-9.4925374 -9.507462,-9.4925374 z" style="fill:url(#linearGradient3736);fill-opacity:1;stroke:none;stroke-width:0.99994898;stroke-linecap:round;stroke-linejoin:round;stroke-miterlimit:4;stroke-dasharray:none;stroke-dashoffset:0;stroke-opacity:1"/>
 <circle id="circle4281" cx="16" cy="11" r="4" style="opacity:0.4;fill:#ffffff;fill-opacity:1;stroke:none;stroke-width:2;stroke-linecap:round;stroke-linejoin:round;stroke-miterlimit:4;stroke-dasharray:none;stroke-opacity:1"/>
 <circle style="opacity:1;fill:#ff9f30;fill-opacity:1;stroke:none;stroke-width:2;stroke-linecap:round;stroke-linejoin:round;stroke-miterlimit:4;stroke-dasharray:none;stroke-opacity:1" id="path4171" cx="16" cy="11" r="3"/>
 <path style="color:#000000;font-style:normal;font-variant:normal;font-weight:normal;font-stretch:normal;font-size:medium;line-height:normal;font-family:sans-serif;text-indent:0;text-align:start;text-decoration:none;text-decoration-line:none;text-decoration-style:solid;text-decoration-color:#000000;letter-spacing:normal;word-spacing:normal;text-transform:none;direction:ltr;block-progression:tb;writing-mode:lr-tb;baseline-shift:baseline;text-anchor:start;white-space:normal;clip-rule:nonzero;display:inline;overflow:visible;visibility:visible;opacity:0.1;isolation:auto;mix-blend-mode:normal;color-interpolation:sRGB;color-interpolation-filters:linearRGB;solid-color:#000000;solid-opacity:1;fill:#000000;fill-opacity:1;fill-rule:nonzero;stroke:none;stroke-width:2;stroke-linecap:round;stroke-linejoin:round;stroke-miterlimit:4;stroke-dasharray:none;stroke-dashoffset:0;stroke-opacity:1;color-rendering:auto;image-rendering:auto;shape-rendering:auto;text-rendering:auto;enable-background:accumulate" id="circle4283" d="m 16.000002,8 a 3,3 0 0 0 -3,3 3,3 0 0 0 3,3 3,3 0 0 0 3,-3 3,3 0 0 0 -3,-3 z m 0,1 c 1.116414,0 2,0.883586 2,2 0,1.116414 -0.883586,2 -2,2 -1.116414,0 -2,-0.883586 -2,-2 0,-1.116414 0.883586,-2 2,-2 z"/>
 <path id="path8655" d="m 20.506205,10.498108 c 0,4.974818 -4.032961,9.007734 -9.007098,9.007734 -4.9745894,0 -9.0073235,-4.032961 -9.0073235,-9.007734 0,-4.9745894 4.0327341,-9.0070967 9.0073235,-9.0070967 4.974137,0 9.007098,4.0325073 9.007098,9.0070967 l 0,0 z" style="opacity:0.52747258;fill:none;stroke:url(#linearGradient3630);stroke-width:1;stroke-miterlimit:4;stroke-dasharray:none;stroke-opacity:1"/>
 <path style="opacity:1;fill:url(#linearGradient4193);fill-opacity:1;stroke:none;stroke-width:2;stroke-linecap:round;stroke-linejoin:round;stroke-miterlimit:4;stroke-dasharray:none;stroke-opacity:1" id="path4168" d="M 8.3500019,8 C 5.5277139,8 2.9410279,9.839141 1.1538109,12.281104 2.0022199,17.225875 6.3164329,21.000002 11.500002,21 15.364236,21 18.737324,18.896757 20.560353,15.780762 16.593373,11.724318 11.332323,8 8.3500019,8 Z"/>
 <path style="color:#000000;font-style:normal;font-variant:normal;font-weight:normal;font-stretch:normal;font-size:medium;line-height:normal;font-family:sans-serif;text-indent:0;text-align:start;text-decoration:none;text-decoration-line:none;text-decoration-style:solid;text-decoration-color:#000000;letter-spacing:normal;word-spacing:normal;text-transform:none;direction:ltr;block-progression:tb;writing-mode:lr-tb;baseline-shift:baseline;text-anchor:start;white-space:normal;clip-rule:nonzero;display:inline;overflow:visible;visibility:visible;opacity:0.4;isolation:auto;mix-blend-mode:normal;color-interpolation:sRGB;color-interpolation-filters:linearRGB;solid-color:#000000;solid-opacity:1;fill:url(#linearGradient4279);fill-opacity:1;fill-rule:nonzero;stroke:none;stroke-width:4;stroke-linecap:round;stroke-linejoin:round;stroke-miterlimit:4;stroke-dasharray:none;stroke-dashoffset:0;stroke-opacity:1;color-rendering:auto;image-rendering:auto;shape-rendering:auto;text-rendering:auto;enable-background:accumulate" id="path4263" d="M 8.3496113,9 C 6.0990929,9 3.9310532,10.49113 2.2968769,12.550781 3.2467925,16.790333 6.9672408,20.000002 11.500002,20 14.702904,20 17.470265,18.364575 19.191408,15.933594 17.399641,14.176901 15.42476,12.449398 13.535158,11.205078 11.426991,9.81683 9.4245059,9 8.3496113,9 Z m 0,1 c 0.6586286,0 2.6043097,0.700702 4.6367187,2.039062 1.599739,1.053445 3.255973,2.564141 4.835938,4.046876 C 16.267513,17.851724 14.041043,19 11.500002,19 7.6183937,19.000001 4.465981,16.356065 3.4414081,12.820312 4.8908406,11.169098 6.6461194,10 8.3496113,10 Z"/>
 <path style="color:#000000;font-style:normal;font-variant:normal;font-weight:normal;font-stretch:normal;font-size:medium;line-height:normal;font-family:sans-serif;text-indent:0;text-align:start;text-decoration:none;text-decoration-line:none;text-decoration-style:solid;text-decoration-color:#000000;letter-spacing:normal;word-spacing:normal;text-transform:none;direction:ltr;block-progression:tb;writing-mode:lr-tb;baseline-shift:baseline;text-anchor:start;white-space:normal;clip-rule:nonzero;display:inline;overflow:visible;visibility:visible;opacity:0.1;isolation:auto;mix-blend-mode:normal;color-interpolation:sRGB;color-interpolation-filters:linearRGB;solid-color:#000000;solid-opacity:1;fill:#000000;fill-opacity:1;fill-rule:nonzero;stroke:none;stroke-width:2;stroke-linecap:round;stroke-linejoin:round;stroke-miterlimit:4;stroke-dasharray:none;stroke-dashoffset:0;stroke-opacity:1;color-rendering:auto;image-rendering:auto;shape-rendering:auto;text-rendering:auto;enable-background:accumulate" id="path4256" d="M 8.3496113,8 C 5.5273233,8 2.9415158,9.839287 1.1542988,12.28125 2.0027078,17.226021 6.3164329,21.000002 11.500002,21 15.364236,21 18.73752,18.897245 20.560549,15.78125 16.593569,11.724806 11.331932,8 8.3496113,8 Z m 0,1 c 1.0748946,0 3.0773797,0.81683 5.1855467,2.205078 1.889602,1.24432 3.864483,2.971823 5.65625,4.728516 C 17.470265,18.364575 14.702904,20 11.500002,20 6.9672408,20.000002 3.2467925,16.790333 2.2968769,12.550781 3.9310532,10.49113 6.0990929,9 8.3496113,9 Z"/>
</svg>
