<svg xmlns="http://www.w3.org/2000/svg" id="svg2888" width="24" height="24" version="1.1">
 <g id="layer1" transform="translate(0,-40)">
  <rect style="fill:#bbdafd;fill-opacity:0;stroke:none" id="rect2901" width="64.17" height="63.993" x="0" y=".01" ry="0"/>
  <path style="opacity:1;fill:#ffffff;fill-opacity:1;fill-rule:nonzero;stroke:none;stroke-width:1.73095834;stroke-linecap:butt;stroke-linejoin:miter;stroke-miterlimit:4;stroke-dasharray:none;stroke-dashoffset:0;stroke-opacity:1" id="path2496" d="m 11.999024,44 a 7.9737272,8 0 0 0 -7.972657,8 7.9737272,8 0 0 0 0.064453,0.945312 c 0.148533,-0.409666 0.2456551,-0.448766 0.9472656,-1.099609 0.8668748,-0.804148 2.0486131,-1.493596 3.5117189,-1.730469 2.8417445,-0.46007 6.3553575,0.794967 10.4277345,5.751954 A 7.9737272,8 0 0 0 19.973633,52 7.9737272,8 0 0 0 11.999024,44 Z m 2.974609,3 a 2,2 0 0 1 2,2 2,2 0 0 1 -2,2 2,2 0 0 1 -2,-2 2,2 0 0 1 2,-2 z m -5.2929692,4.958984 c -0.2956524,-0.0076 -0.5733462,0.01085 -0.8320312,0.05273 -1.0347391,0.167522 -1.8669633,0.659146 -2.5039062,1.25 C 5.8662112,53.705605 5.116524,54.644 4.7216795,55.244136 A 7.9737272,8 0 0 0 11.999024,60 7.9737272,8 0 0 0 17.858399,57.412109 C 14.514794,53.339957 11.681964,52.010597 9.6806639,51.958984 Z"/>
 </g>
</svg>
