<svg xmlns="http://www.w3.org/2000/svg" xmlns:xlink="http://www.w3.org/1999/xlink" id="svg3675" width="16" height="16" version="1">
 <defs id="defs3677">
  <linearGradient id="linearGradient4203">
   <stop style="stop-color:#ffb12c;stop-opacity:1" id="stop4205" offset="0"/>
   <stop style="stop-color:#ffd896;stop-opacity:1" id="stop4207" offset="1"/>
  </linearGradient>
  <linearGradient id="linearGradient8838">
   <stop id="stop8840" offset="0" style="stop-color:#000000;stop-opacity:1"/>
   <stop id="stop8842" offset="1" style="stop-color:#000000;stop-opacity:0"/>
  </linearGradient>
  <linearGradient id="linearGradient3242-187-536">
   <stop id="stop2778" offset="0" style="stop-color:#8badea;stop-opacity:1"/>
   <stop id="stop2784" offset="1" style="stop-color:#5652b5;stop-opacity:1"/>
  </linearGradient>
  <linearGradient id="linearGradient4873">
   <stop id="stop4875" offset="0" style="stop-color:#ffffff;stop-opacity:1"/>
   <stop id="stop4877" offset="1" style="stop-color:#ffffff;stop-opacity:0"/>
  </linearGradient>
  <linearGradient id="linearGradient4193" x1="18.104" x2="18.104" y1="19.904" y2="43.881" gradientTransform="matrix(0.4,0,0,0.4,-1.6,-2)" gradientUnits="userSpaceOnUse" xlink:href="#linearGradient3242-187-536"/>
  <linearGradient id="linearGradient4209" x1="26.098" x2="26.098" y1="44.889" y2="5.111" gradientTransform="matrix(0.35900766,0,0,0.35900765,-0.61618388,-0.97519143)" gradientUnits="userSpaceOnUse" xlink:href="#linearGradient4203"/>
  <linearGradient id="linearGradient4230" x1="8" x2="8" y1="1" y2="15" gradientUnits="userSpaceOnUse" xlink:href="#linearGradient4873"/>
  <linearGradient id="linearGradient4257" x1="6" x2="6" y1="7" y2="14.986" gradientUnits="userSpaceOnUse" xlink:href="#linearGradient4873"/>
 </defs>
 <path style="color:#000000;font-style:normal;font-variant:normal;font-weight:normal;font-stretch:normal;font-size:medium;line-height:normal;font-family:sans-serif;text-indent:0;text-align:start;text-decoration:none;text-decoration-line:none;text-decoration-style:solid;text-decoration-color:#000000;letter-spacing:normal;word-spacing:normal;text-transform:none;direction:ltr;block-progression:tb;writing-mode:lr-tb;baseline-shift:baseline;text-anchor:start;white-space:normal;clip-rule:nonzero;display:inline;overflow:visible;visibility:visible;opacity:1;isolation:auto;mix-blend-mode:normal;color-interpolation:sRGB;color-interpolation-filters:linearRGB;solid-color:#000000;solid-opacity:1;fill:#deac67;fill-opacity:1;fill-rule:nonzero;stroke:none;stroke-width:1.003654;stroke-linecap:round;stroke-linejoin:round;stroke-miterlimit:4;stroke-dasharray:none;stroke-dashoffset:0;stroke-opacity:1;color-rendering:auto;image-rendering:auto;shape-rendering:auto;text-rendering:auto;enable-background:accumulate" id="path4165" d="M 8,0 C 3.5879176,0 0,3.5879168 0,8 0,8.4986808 0.04583532,8.9868328 0.13351536,9.4604656 0.82158548,13.177305 3.8607933,9.6716007 7.7741953,9.6715997 10.696755,9.6715987 13.483502,14.425718 14.879555,12.080421 15.591072,10.88511 16.000001,9.4895216 16,8 15.999996,3.5879168 12.412081,0 8,0 Z"/>
 <path style="fill:url(#linearGradient4209);fill-opacity:1;stroke:none;stroke-width:1.003654;stroke-linecap:round;stroke-linejoin:round;stroke-miterlimit:4;stroke-dasharray:none;stroke-dashoffset:0;stroke-opacity:1" id="path2555" d="M 8.0000007,1 C 4.1376424,1 0.99999998,4.1376413 0.99999998,8 c 0,3.862359 3.13764242,7.000001 7.00000072,7 C 11.862358,15 15.000004,11.862359 15,8 15,4.1376413 11.862358,1 8.0000007,1 Z"/>
 <path style="color:#000000;font-style:normal;font-variant:normal;font-weight:normal;font-stretch:normal;font-size:medium;line-height:normal;font-family:sans-serif;text-indent:0;text-align:start;text-decoration:none;text-decoration-line:none;text-decoration-style:solid;text-decoration-color:#000000;letter-spacing:normal;word-spacing:normal;text-transform:none;direction:ltr;block-progression:tb;writing-mode:lr-tb;baseline-shift:baseline;text-anchor:start;white-space:normal;clip-rule:nonzero;display:inline;overflow:visible;visibility:visible;opacity:0.4;isolation:auto;mix-blend-mode:normal;color-interpolation:sRGB;color-interpolation-filters:linearRGB;solid-color:#000000;solid-opacity:1;fill:url(#linearGradient4230);fill-opacity:1;fill-rule:nonzero;stroke:none;stroke-width:2;stroke-linecap:round;stroke-linejoin:round;stroke-miterlimit:4;stroke-dasharray:none;stroke-dashoffset:0;stroke-opacity:1;color-rendering:auto;image-rendering:auto;shape-rendering:auto;text-rendering:auto;enable-background:accumulate" id="path4217" d="M 8 1 C 4.1376417 1 1 4.1376413 1 8 C 1 11.862359 4.1376417 15.000001 8 15 C 11.862357 15 15.000004 11.862359 15 8 C 15 4.1376413 11.862357 1 8 1 z M 8 2 C 11.320781 2 14 4.6792174 14 8 C 14.000003 11.320782 11.320781 14 8 14 C 4.679218 14.000001 2 11.320783 2 8 C 2 4.6792175 4.6792178 2 8 2 z"/>
 <circle id="circle4232" cx="11" cy="8" r="3" style="opacity:0.3;fill:#ffffff;fill-opacity:1;stroke:none;stroke-width:2;stroke-linecap:round;stroke-linejoin:round;stroke-miterlimit:4;stroke-dasharray:none;stroke-opacity:1"/>
 <circle style="opacity:1;fill:#ff9f30;fill-opacity:1;stroke:none;stroke-width:2;stroke-linecap:round;stroke-linejoin:round;stroke-miterlimit:4;stroke-dasharray:none;stroke-opacity:1" id="path4171" cx="11" cy="8" r="2"/>
 <path style="color:#000000;font-style:normal;font-variant:normal;font-weight:normal;font-stretch:normal;font-size:medium;line-height:normal;font-family:sans-serif;text-indent:0;text-align:start;text-decoration:none;text-decoration-line:none;text-decoration-style:solid;text-decoration-color:#000000;letter-spacing:normal;word-spacing:normal;text-transform:none;direction:ltr;block-progression:tb;writing-mode:lr-tb;baseline-shift:baseline;text-anchor:start;white-space:normal;clip-rule:nonzero;display:inline;overflow:visible;visibility:visible;opacity:0.1;isolation:auto;mix-blend-mode:normal;color-interpolation:sRGB;color-interpolation-filters:linearRGB;solid-color:#000000;solid-opacity:1;fill:#000000;fill-opacity:1;fill-rule:nonzero;stroke:none;stroke-width:2;stroke-linecap:round;stroke-linejoin:round;stroke-miterlimit:4;stroke-dasharray:none;stroke-dashoffset:0;stroke-opacity:1;color-rendering:auto;image-rendering:auto;shape-rendering:auto;text-rendering:auto;enable-background:accumulate" id="circle4259" d="M 11 6 A 2 2 0 0 0 9 8 A 2 2 0 0 0 11 10 A 2 2 0 0 0 13 8 A 2 2 0 0 0 11 6 z M 11 7 C 11.564129 7 12 7.4358706 12 8 C 12 8.5641294 11.564129 9 11 9 C 10.435871 9 10 8.5641294 10 8 C 10 7.4358706 10.435871 7 11 7 z"/>
 <path style="opacity:1;fill:url(#linearGradient4193);fill-opacity:1;stroke:none;stroke-width:2;stroke-linecap:round;stroke-linejoin:round;stroke-miterlimit:4;stroke-dasharray:none;stroke-opacity:1" id="path4168" d="M 5.6,6 C 3.4496852,6 1.4788769,7.496488 0.11718752,9.3570312 0.76359448,13.124476 4.0506144,16.000001 8,16 10.944178,16 13.51415,14.397529 14.903125,12.023438 11.880664,8.9328136 7.8722444,6 5.6,6 Z"/>
 <path style="color:#000000;font-style:normal;font-variant:normal;font-weight:normal;font-stretch:normal;font-size:medium;line-height:normal;font-family:sans-serif;text-indent:0;text-align:start;text-decoration:none;text-decoration-line:none;text-decoration-style:solid;text-decoration-color:#000000;letter-spacing:normal;word-spacing:normal;text-transform:none;direction:ltr;block-progression:tb;writing-mode:lr-tb;baseline-shift:baseline;text-anchor:start;white-space:normal;clip-rule:nonzero;display:inline;overflow:visible;visibility:visible;opacity:0.3;isolation:auto;mix-blend-mode:normal;color-interpolation:sRGB;color-interpolation-filters:linearRGB;solid-color:#000000;solid-opacity:1;fill:url(#linearGradient4257);fill-opacity:1;fill-rule:nonzero;stroke:none;stroke-width:4;stroke-linecap:round;stroke-linejoin:round;stroke-miterlimit:4;stroke-dasharray:none;stroke-dashoffset:0;stroke-opacity:1;color-rendering:auto;image-rendering:auto;shape-rendering:auto;text-rendering:auto;enable-background:accumulate" id="path4241" d="M 5.5996094 7 C 4.0436544 7 2.4740969 8.1243111 1.2597656 9.6210938 C 2.0016379 12.686461 4.6993573 15.000001 8 15 C 10.281587 15 12.179422 13.793766 13.457031 12.103516 C 12.156655 10.848007 10.758711 9.5876586 9.4121094 8.6816406 C 7.8221318 7.6118745 6.3054942 7 5.5996094 7 z M 5.5996094 8 C 5.8752568 8 7.3375035 8.4917178 8.8535156 9.5117188 C 9.8904785 10.209406 10.957847 11.226023 12.013672 12.185547 C 10.938981 13.223246 9.6173582 14 8 14 C 5.3497204 14.000001 3.2009601 12.25087 2.4003906 9.8867188 C 3.422561 8.7912655 4.5932845 8 5.5996094 8 z"/>
 <path style="color:#000000;font-style:normal;font-variant:normal;font-weight:normal;font-stretch:normal;font-size:medium;line-height:normal;font-family:sans-serif;text-indent:0;text-align:start;text-decoration:none;text-decoration-line:none;text-decoration-style:solid;text-decoration-color:#000000;letter-spacing:normal;word-spacing:normal;text-transform:none;direction:ltr;block-progression:tb;writing-mode:lr-tb;baseline-shift:baseline;text-anchor:start;white-space:normal;clip-rule:nonzero;display:inline;overflow:visible;visibility:visible;opacity:0.1;isolation:auto;mix-blend-mode:normal;color-interpolation:sRGB;color-interpolation-filters:linearRGB;solid-color:#000000;solid-opacity:1;fill:#000000;fill-opacity:1;fill-rule:nonzero;stroke:none;stroke-width:2;stroke-linecap:round;stroke-linejoin:round;stroke-miterlimit:4;stroke-dasharray:none;stroke-dashoffset:0;stroke-opacity:1;color-rendering:auto;image-rendering:auto;shape-rendering:auto;text-rendering:auto;enable-background:accumulate" id="path4234" d="M 5.5996094 6 C 3.4492946 6 1.4788769 7.4968787 0.1171875 9.3574219 C 0.76359446 13.124867 4.0506144 16.000001 8 16 C 10.944178 16 13.513369 14.397528 14.902344 12.023438 C 11.879883 8.9328131 7.8718538 6 5.5996094 6 z M 5.5996094 7 C 6.3054942 7 7.8221318 7.6118745 9.4121094 8.6816406 C 10.758711 9.5876586 12.156655 10.848007 13.457031 12.103516 C 12.179422 13.793766 10.281587 15 8 15 C 4.6993573 15.000001 2.0016379 12.686461 1.2597656 9.6210938 C 2.4740969 8.1243112 4.0436544 7 5.5996094 7 z"/>
</svg>
