<svg xmlns="http://www.w3.org/2000/svg" xmlns:xlink="http://www.w3.org/1999/xlink" id="svg2" width="24" height="24" version="1">
 <defs id="defs4">
  <linearGradient id="linearGradient4238">
   <stop style="stop-color:#ffd896;stop-opacity:1" id="stop4242" offset="0"/>
   <stop style="stop-color:#ffb12c;stop-opacity:1" id="stop4240" offset="1"/>
  </linearGradient>
  <linearGradient id="linearGradient8838">
   <stop id="stop8840" offset="0" style="stop-color:black;stop-opacity:1"/>
   <stop id="stop8842" offset="1" style="stop-color:black;stop-opacity:0"/>
  </linearGradient>
  <radialGradient id="radialGradient2493" cx="62.625" cy="4.625" r="10.625" fx="62.625" fy="4.625" gradientTransform="matrix(1.0352941,0,0,0.28235255,-52.835295,19.694118)" gradientUnits="userSpaceOnUse" xlink:href="#linearGradient8838"/>
  <linearGradient id="linearGradient3736" x1="28.771" x2="28.771" y1="12.918" y2="45.348" gradientTransform="matrix(0.4670924,0,0,0.4670923,1.2887695,1.2882939)" gradientUnits="userSpaceOnUse" xlink:href="#linearGradient4238"/>
  <linearGradient id="linearGradient4873">
   <stop id="stop4875" offset="0" style="stop-color:white;stop-opacity:1"/>
   <stop id="stop4877" offset="1" style="stop-color:white;stop-opacity:0"/>
  </linearGradient>
  <linearGradient id="linearGradient3630" x1="63.397" x2="63.397" y1="-9.383" y2="7.443" gradientTransform="matrix(1.0299253,0,0,1.0299249,-51.56277,16.114324)" gradientUnits="userSpaceOnUse" xlink:href="#linearGradient4873"/>
  <linearGradient id="linearGradient4193" x1="18.104" x2="18.104" y1="19.904" y2="43.881" gradientTransform="matrix(0.525,0,0,0.525,-0.1,-0.6249999)" gradientUnits="userSpaceOnUse" xlink:href="#linearGradient3242-187-536"/>
  <linearGradient id="linearGradient3242-187-536">
   <stop id="stop2778" offset="0" style="stop-color:#8badea;stop-opacity:1"/>
   <stop id="stop2784" offset="1" style="stop-color:#5652b5;stop-opacity:1"/>
  </linearGradient>
  <linearGradient id="linearGradient4279" x1="10" x2="10" y1="11" y2="21.886" gradientUnits="userSpaceOnUse" xlink:href="#linearGradient4873"/>
 </defs>
 <path style="color:#000000;font-style:normal;font-variant:normal;font-weight:normal;font-stretch:normal;font-size:medium;line-height:normal;font-family:sans-serif;text-indent:0;text-align:start;text-decoration:none;text-decoration-line:none;text-decoration-style:solid;text-decoration-color:#000000;letter-spacing:normal;word-spacing:normal;text-transform:none;direction:ltr;block-progression:tb;writing-mode:lr-tb;baseline-shift:baseline;text-anchor:start;white-space:normal;clip-rule:nonzero;display:inline;overflow:visible;visibility:visible;opacity:1;isolation:auto;mix-blend-mode:normal;color-interpolation:sRGB;color-interpolation-filters:linearRGB;solid-color:#000000;solid-opacity:1;fill:#deac67;fill-opacity:1;fill-rule:nonzero;stroke:none;stroke-width:0.99994898;stroke-linecap:round;stroke-linejoin:round;stroke-miterlimit:4;stroke-dasharray:none;stroke-dashoffset:0;stroke-opacity:1;color-rendering:auto;image-rendering:auto;shape-rendering:auto;text-rendering:auto;enable-background:accumulate" id="path4337" d="M 12.492188,2 C 6.7029719,2 2,6.7029696 2,12.492188 c 0,0.688529 0.06651,1.361914 0.1934516,2.014018 0.9403919,4.830847 5.6037173,4.225503 10.7052404,4.225501 3.742063,-1e-6 6.629659,2.297839 8.49184,-0.659115 C 22.409738,16.454197 23.000002,14.540289 23,12.492188 22.999995,6.7020216 18.281402,2 12.492188,2 Z"/>
 <path style="display:inline;overflow:visible;visibility:visible;opacity:0.56043958;fill:url(#radialGradient2493);fill-opacity:1;fill-rule:evenodd;stroke:none;stroke-width:0.99999988;marker:none" id="path2774" d="M 22.999998,21 A 11,3 0 0 1 0.9999982,21 11,3 0 1 1 22.999998,21 Z"/>
 <path id="path2555" d="M 12.492537,3.0000006 C 7.2494357,3.0000006 3,7.2494354 3,12.492539 3,17.735641 7.2494357,22.000002 12.492537,22 17.735637,22 22.000004,17.73564 22,12.492538 22,7.2494354 17.735638,3.0000006 12.492538,3.0000006 Z" style="fill:url(#linearGradient3736);fill-opacity:1;stroke:none;stroke-width:0.99994898;stroke-linecap:round;stroke-linejoin:round;stroke-miterlimit:4;stroke-dasharray:none;stroke-dashoffset:0;stroke-opacity:1"/>
 <circle id="circle4281" cx="17" cy="13" r="4" style="opacity:0.4;fill:#ffffff;fill-opacity:1;stroke:none;stroke-width:2;stroke-linecap:round;stroke-linejoin:round;stroke-miterlimit:4;stroke-dasharray:none;stroke-opacity:1"/>
 <circle style="opacity:1;fill:#ff9f30;fill-opacity:1;stroke:none;stroke-width:2;stroke-linecap:round;stroke-linejoin:round;stroke-miterlimit:4;stroke-dasharray:none;stroke-opacity:1" id="path4171" cx="17" cy="13" r="3"/>
 <path style="color:#000000;font-style:normal;font-variant:normal;font-weight:normal;font-stretch:normal;font-size:medium;line-height:normal;font-family:sans-serif;text-indent:0;text-align:start;text-decoration:none;text-decoration-line:none;text-decoration-style:solid;text-decoration-color:#000000;letter-spacing:normal;word-spacing:normal;text-transform:none;direction:ltr;block-progression:tb;writing-mode:lr-tb;baseline-shift:baseline;text-anchor:start;white-space:normal;clip-rule:nonzero;display:inline;overflow:visible;visibility:visible;opacity:0.1;isolation:auto;mix-blend-mode:normal;color-interpolation:sRGB;color-interpolation-filters:linearRGB;solid-color:#000000;solid-opacity:1;fill:#000000;fill-opacity:1;fill-rule:nonzero;stroke:none;stroke-width:2;stroke-linecap:round;stroke-linejoin:round;stroke-miterlimit:4;stroke-dasharray:none;stroke-dashoffset:0;stroke-opacity:1;color-rendering:auto;image-rendering:auto;shape-rendering:auto;text-rendering:auto;enable-background:accumulate" id="circle4283" d="m 17,10 a 3,3 0 0 0 -3,3 3,3 0 0 0 3,3 3,3 0 0 0 3,-3 3,3 0 0 0 -3,-3 z m 0,1 c 1.116414,0 2,0.883586 2,2 0,1.116414 -0.883586,2 -2,2 -1.116414,0 -2,-0.883586 -2,-2 0,-1.116414 0.883586,-2 2,-2 z"/>
 <path id="path8655" d="m 21.506203,12.498108 c 0,4.974818 -4.032961,9.007734 -9.007098,9.007734 -4.9745893,0 -9.0073234,-4.032961 -9.0073234,-9.007734 0,-4.9745894 4.0327341,-9.0070967 9.0073234,-9.0070967 4.974137,0 9.007098,4.0325073 9.007098,9.0070967 l 0,0 z" style="opacity:0.52747258;fill:none;stroke:url(#linearGradient3630);stroke-width:1;stroke-miterlimit:4;stroke-dasharray:none;stroke-opacity:1"/>
 <path style="opacity:1;fill:url(#linearGradient4193);fill-opacity:1;stroke:none;stroke-width:2;stroke-linecap:round;stroke-linejoin:round;stroke-miterlimit:4;stroke-dasharray:none;stroke-opacity:1" id="path4168" d="M 9.35,10 C 6.527712,10 3.941026,11.839141 2.153809,14.281104 3.002218,19.225875 7.316431,23.000002 12.5,23 16.364234,23 19.737322,20.896757 21.560351,17.780762 17.593371,13.724318 12.332321,10 9.35,10 Z"/>
 <path style="color:#000000;font-style:normal;font-variant:normal;font-weight:normal;font-stretch:normal;font-size:medium;line-height:normal;font-family:sans-serif;text-indent:0;text-align:start;text-decoration:none;text-decoration-line:none;text-decoration-style:solid;text-decoration-color:#000000;letter-spacing:normal;word-spacing:normal;text-transform:none;direction:ltr;block-progression:tb;writing-mode:lr-tb;baseline-shift:baseline;text-anchor:start;white-space:normal;clip-rule:nonzero;display:inline;overflow:visible;visibility:visible;opacity:0.4;isolation:auto;mix-blend-mode:normal;color-interpolation:sRGB;color-interpolation-filters:linearRGB;solid-color:#000000;solid-opacity:1;fill:url(#linearGradient4279);fill-opacity:1;fill-rule:nonzero;stroke:none;stroke-width:4;stroke-linecap:round;stroke-linejoin:round;stroke-miterlimit:4;stroke-dasharray:none;stroke-dashoffset:0;stroke-opacity:1;color-rendering:auto;image-rendering:auto;shape-rendering:auto;text-rendering:auto;enable-background:accumulate" id="path4263" d="M 9.3496094,11 C 7.099091,11 4.9310513,12.49113 3.296875,14.550781 4.2467906,18.790333 7.9672389,22.000002 12.5,22 c 3.202902,0 5.970263,-1.635425 7.691406,-4.066406 -1.791767,-1.756693 -3.766648,-3.484196 -5.65625,-4.728516 C 12.426989,11.81683 10.424504,11 9.3496094,11 Z m 0,1 c 0.6586286,0 2.6043096,0.700702 4.6367186,2.039062 1.599739,1.053445 3.255973,2.564141 4.835938,4.046876 C 17.267511,19.851724 15.041041,21 12.5,21 8.6183918,21.000001 5.4659791,18.356065 4.4414062,14.820312 5.8908387,13.169098 7.6461175,12 9.3496094,12 Z"/>
 <path style="color:#000000;font-style:normal;font-variant:normal;font-weight:normal;font-stretch:normal;font-size:medium;line-height:normal;font-family:sans-serif;text-indent:0;text-align:start;text-decoration:none;text-decoration-line:none;text-decoration-style:solid;text-decoration-color:#000000;letter-spacing:normal;word-spacing:normal;text-transform:none;direction:ltr;block-progression:tb;writing-mode:lr-tb;baseline-shift:baseline;text-anchor:start;white-space:normal;clip-rule:nonzero;display:inline;overflow:visible;visibility:visible;opacity:0.1;isolation:auto;mix-blend-mode:normal;color-interpolation:sRGB;color-interpolation-filters:linearRGB;solid-color:#000000;solid-opacity:1;fill:#000000;fill-opacity:1;fill-rule:nonzero;stroke:none;stroke-width:2;stroke-linecap:round;stroke-linejoin:round;stroke-miterlimit:4;stroke-dasharray:none;stroke-dashoffset:0;stroke-opacity:1;color-rendering:auto;image-rendering:auto;shape-rendering:auto;text-rendering:auto;enable-background:accumulate" id="path4256" d="M 9.3496094,10 C 6.5273214,10 3.9415139,11.839287 2.1542969,14.28125 3.0027059,19.226021 7.316431,23.000002 12.5,23 16.364234,23 19.737518,20.897245 21.560547,17.78125 17.593567,13.724806 12.33193,10 9.3496094,10 Z m 0,1 c 1.0748946,0 3.0773796,0.81683 5.1855466,2.205078 1.889602,1.24432 3.864483,2.971823 5.65625,4.728516 C 18.470263,20.364575 15.702902,22 12.5,22 7.9672389,22.000002 4.2467906,18.790333 3.296875,14.550781 4.9310513,12.49113 7.099091,11 9.3496094,11 Z"/>
</svg>
