<svg xmlns="http://www.w3.org/2000/svg" id="svg2888" width="24" height="24" version="1.1">
 <g id="layer1" transform="translate(0,-40)">
  <rect style="fill:#bbdafd;fill-opacity:0;stroke:none" id="rect2901" width="64.17" height="63.993" x="0" y=".01" ry="0"/>
  <path style="fill:#31363b;fill-opacity:1;fill-rule:nonzero;stroke:none;stroke-width:1.73095834;stroke-linecap:butt;stroke-linejoin:miter;stroke-miterlimit:4;stroke-dasharray:none;stroke-dashoffset:0;stroke-opacity:1" id="path4142" d="M 12 4 A 8 8 0 0 0 4 12 A 8 8 0 0 0 12 20 A 8 8 0 0 0 20 12 A 8 8 0 0 0 12 4 z M 12 5 A 7 7 0 0 1 19 12 A 7 7 0 0 1 17.888672 15.771484 C 17.433984 15.403372 16.403621 14.584837 14.902344 13.583984 C 13.001742 12.316917 10.777778 11 9 11 C 7.3043616 11 5.9707172 11.82976 5.0351562 12.648438 A 7 7 0 0 1 5 12 A 7 7 0 0 1 12 5 z M 15 8 A 2 2 0 0 0 13 10 A 2 2 0 0 0 15 12 A 2 2 0 0 0 17 10 A 2 2 0 0 0 15 8 z" transform="translate(0,40)"/>
 </g>
</svg>
