<svg xmlns="http://www.w3.org/2000/svg" id="svg2888" width="22" height="22" version="1.1">
  <defs id="defs3051">
    <style type="text/css" id="current-color-scheme">
      .ColorScheme-Text {
        color:#31363b;
      }
      </style>
  </defs>
 <path id="path4142" d="m 11,3 a 8,8 0 0 0 -8,8 8,8 0 0 0 8,8 8,8 0 0 0 8,-8 8,8 0 0 0 -8,-8 z m 0,1 a 7,7 0 0 1 7,7 7,7 0 0 1 -1.111328,3.771484 C 16.433984,14.403372 15.403621,13.584837 13.902344,12.583984 12.001742,11.316917 9.777778,10 8,10 6.3043616,10 4.9707172,10.82976 4.0351562,11.648438 A 7,7 0 0 1 4,11 7,7 0 0 1 11,4 Z m 3,3 a 2,2 0 0 0 -2,2 2,2 0 0 0 2,2 2,2 0 0 0 2,-2 2,2 0 0 0 -2,-2 z" style="fill:currentColor" class="ColorScheme-Text"/>
</svg>
