<?xml version="1.0" encoding="UTF-8" standalone="no"?>
<!-- Created with Inkscape (http://www.inkscape.org/) -->

<svg
   xmlns:dc="http://purl.org/dc/elements/1.1/"
   xmlns:cc="http://creativecommons.org/ns#"
   xmlns:rdf="http://www.w3.org/1999/02/22-rdf-syntax-ns#"
   xmlns:svg="http://www.w3.org/2000/svg"
   xmlns="http://www.w3.org/2000/svg"
   xmlns:sodipodi="http://sodipodi.sourceforge.net/DTD/sodipodi-0.dtd"
   xmlns:inkscape="http://www.inkscape.org/namespaces/inkscape"
   width="24"
   height="24"
   id="svg2888"
   version="1.1"
   inkscape:version="0.91 r13725"
   sodipodi:docname="fluxgui-panel.svg"
   inkscape:export-filename="/home/zach/lookit.png"
   inkscape:export-xdpi="30.9375"
   inkscape:export-ydpi="30.9375"
   sodipodi:version="0.32"
   inkscape:output_extension="org.inkscape.output.svg.inkscape">
  <defs
     id="defs2890">
    <inkscape:perspective
       sodipodi:type="inkscape:persp3d"
       inkscape:vp_x="0 : 32 : 1"
       inkscape:vp_y="0 : 1000 : 0"
       inkscape:vp_z="64 : 32 : 1"
       inkscape:persp3d-origin="32 : 21.333333 : 1"
       id="perspective2896" />
    <inkscape:perspective
       id="perspective3281"
       inkscape:persp3d-origin="372.04724 : 350.78739 : 1"
       inkscape:vp_z="744.09448 : 526.18109 : 1"
       inkscape:vp_y="0 : 1000 : 0"
       inkscape:vp_x="0 : 526.18109 : 1"
       sodipodi:type="inkscape:persp3d" />
  </defs>
  <sodipodi:namedview
     id="base"
     pagecolor="#ffffff"
     bordercolor="#666666"
     borderopacity="1.0"
     inkscape:pageopacity="0.0"
     inkscape:pageshadow="2"
     inkscape:zoom="11.33"
     inkscape:cx="10.736631"
     inkscape:cy="10.482099"
     inkscape:current-layer="layer1"
     showgrid="false"
     inkscape:document-units="px"
     inkscape:grid-bbox="true"
     inkscape:window-width="1920"
     inkscape:window-height="1019"
     inkscape:window-x="0"
     inkscape:window-y="32"
     inkscape:window-maximized="1">
    <inkscape:grid
       type="xygrid"
       id="grid4144" />
  </sodipodi:namedview>
  <metadata
     id="metadata2893">
    <rdf:RDF>
      <cc:Work
         rdf:about="">
        <dc:format>image/svg+xml</dc:format>
        <dc:type
           rdf:resource="http://purl.org/dc/dcmitype/StillImage" />
        <dc:title></dc:title>
      </cc:Work>
    </rdf:RDF>
  </metadata>
  <g
     id="layer1"
     inkscape:label="Layer 1"
     inkscape:groupmode="layer"
     transform="translate(0,-40)">
    <rect
       style="fill:#bbdafd;fill-opacity:0;stroke:none"
       id="rect2901"
       width="64.169937"
       height="63.993164"
       x="0"
       y="0.0068368739"
       ry="0" />
    <path
       style="fill:#31363b;fill-opacity:1;fill-rule:nonzero;stroke:none;stroke-width:1.73095834;stroke-linecap:butt;stroke-linejoin:miter;stroke-miterlimit:4;stroke-dasharray:none;stroke-dashoffset:0;stroke-opacity:1"
       d="M 12 4 A 8 8 0 0 0 4 12 A 8 8 0 0 0 12 20 A 8 8 0 0 0 20 12 A 8 8 0 0 0 12 4 z M 12 5 A 7 7 0 0 1 19 12 A 7 7 0 0 1 17.888672 15.771484 C 17.433984 15.403372 16.403621 14.584837 14.902344 13.583984 C 13.001742 12.316917 10.777778 11 9 11 C 7.3043616 11 5.9707172 11.82976 5.0351562 12.648438 A 7 7 0 0 1 5 12 A 7 7 0 0 1 12 5 z M 15 8 A 2 2 0 0 0 13 10 A 2 2 0 0 0 15 12 A 2 2 0 0 0 17 10 A 2 2 0 0 0 15 8 z "
       transform="translate(0,40)"
       id="path4142" />
  </g>
</svg>
