<svg xmlns="http://www.w3.org/2000/svg" xmlns:xlink="http://www.w3.org/1999/xlink" id="svg3675" width="48" height="48" version="1">
 <defs id="defs3677">
  <linearGradient id="linearGradient4203">
   <stop style="stop-color:#ffb12c;stop-opacity:1" id="stop4205" offset="0"/>
   <stop style="stop-color:#ffd896;stop-opacity:1" id="stop4207" offset="1"/>
  </linearGradient>
  <linearGradient id="linearGradient8838">
   <stop id="stop8840" offset="0" style="stop-color:#000000;stop-opacity:1"/>
   <stop id="stop8842" offset="1" style="stop-color:#000000;stop-opacity:0"/>
  </linearGradient>
  <linearGradient id="linearGradient3242-187-536">
   <stop id="stop2778" offset="0" style="stop-color:#8badea;stop-opacity:1"/>
   <stop id="stop2784" offset="1" style="stop-color:#5652b5;stop-opacity:1"/>
  </linearGradient>
  <linearGradient id="linearGradient4873">
   <stop id="stop4875" offset="0" style="stop-color:#ffffff;stop-opacity:1"/>
   <stop id="stop4877" offset="1" style="stop-color:#ffffff;stop-opacity:0"/>
  </linearGradient>
  <linearGradient id="linearGradient2407" x1="63.397" x2="63.397" y1="-12.489" y2="5.468" gradientTransform="matrix(2.1153735,0,0,2.1153253,-107.57709,32.426559)" gradientUnits="userSpaceOnUse" xlink:href="#linearGradient4873"/>
  <radialGradient id="radialGradient2415" cx="62.625" cy="4.625" r="10.625" fx="62.625" fy="4.625" gradientTransform="matrix(2.1647059,0,0,0.7529402,-111.56471,36.517647)" gradientUnits="userSpaceOnUse" xlink:href="#linearGradient8838"/>
  <linearGradient id="linearGradient4193" x1="18.104" x2="18.104" y1="19.904" y2="43.881" gradientUnits="userSpaceOnUse" xlink:href="#linearGradient3242-187-536"/>
  <linearGradient id="linearGradient4209" x1="26.098" x2="26.098" y1="44.889" y2="5.111" gradientTransform="matrix(0.97444937,0,0,0.97444934,0.61321516,0.638766)" gradientUnits="userSpaceOnUse" xlink:href="#linearGradient4203"/>
  <linearGradient id="linearGradient4234" x1="24.777" x2="24.777" y1="19.126" y2="46.146" gradientUnits="userSpaceOnUse" xlink:href="#linearGradient4873"/>
 </defs>
 <path style="color:#000000;font-style:normal;font-variant:normal;font-weight:normal;font-stretch:normal;font-size:medium;line-height:normal;font-family:sans-serif;text-indent:0;text-align:start;text-decoration:none;text-decoration-line:none;text-decoration-style:solid;text-decoration-color:#000000;letter-spacing:normal;word-spacing:normal;text-transform:none;direction:ltr;block-progression:tb;writing-mode:lr-tb;baseline-shift:baseline;text-anchor:start;white-space:normal;clip-rule:nonzero;display:inline;overflow:visible;visibility:visible;opacity:1;isolation:auto;mix-blend-mode:normal;color-interpolation:sRGB;color-interpolation-filters:linearRGB;solid-color:#000000;solid-opacity:1;fill:#deac67;fill-opacity:1;fill-rule:nonzero;stroke:none;stroke-width:1.003654;stroke-linecap:round;stroke-linejoin:round;stroke-miterlimit:4;stroke-dasharray:none;stroke-dashoffset:0;stroke-opacity:1;color-rendering:auto;image-rendering:auto;shape-rendering:auto;text-rendering:auto;enable-background:accumulate" id="path4165" d="M 24,5 C 12.969794,5 4,13.969792 4,25 c 0,1.246702 0.1145883,2.467082 0.3337884,3.651164 1.7201753,9.292098 10.6180216,8.832286 20.4015266,8.832283 7.3064,-2e-6 12.973439,3.580849 16.463573,-2.282394 C 42.97768,32.212774 44.000003,28.723804 44,25 43.99999,13.969792 35.030203,5 24,5 Z"/>
 <path style="display:inline;overflow:visible;visibility:visible;opacity:0.3;fill:url(#radialGradient2415);fill-opacity:1;fill-rule:evenodd;stroke:none;stroke-width:0.99999988;stroke-linecap:butt;stroke-linejoin:round;stroke-miterlimit:4;stroke-dasharray:none;stroke-dashoffset:0;stroke-opacity:1;marker:none;marker-start:none;marker-mid:none;marker-end:none" id="path8836" d="m 46.999997,40 c 0,4.418278 -10.297452,8 -23,8 -12.702548,0 -23.0000002,-3.581722 -23.0000002,-8 0,-4.418278 10.2974522,-8 23.0000002,-8 12.702548,0 23,3.581722 23,8 l 0,0 z"/>
 <path style="fill:url(#linearGradient4209);fill-opacity:1;stroke:none;stroke-width:1.003654;stroke-linecap:round;stroke-linejoin:round;stroke-miterlimit:4;stroke-dasharray:none;stroke-dashoffset:0;stroke-opacity:1" id="path2555" d="M 24.000002,6 C 13.516458,6 4.9999999,14.516455 4.9999999,25 c 0,10.483545 8.5164581,19.000003 19.0000021,19 C 34.483542,44 43.00001,35.483545 43,25 43,14.516455 34.483542,6 24.000002,6 Z"/>
 <path style="opacity:0.4;fill:none;fill-opacity:1;fill-rule:nonzero;stroke:url(#linearGradient2407);stroke-width:1;stroke-miterlimit:4;stroke-dasharray:none;stroke-opacity:1" id="path8655" d="M 42.500002,24.999344 C 42.500002,35.216942 34.21666,43.5 24.000235,43.5 13.782875,43.5 5.5000003,35.216848 5.5000003,24.999344 c 0,-10.217125 8.2828747,-18.4993439 18.5002347,-18.4993439 10.216425,0 18.499767,8.2822189 18.499767,18.4993439 l 0,0 z"/>
 <circle id="circle4243" cx="33" cy="27" r="7" style="opacity:0.4;fill:#ffffff;fill-opacity:1;stroke:none;stroke-width:2;stroke-linecap:round;stroke-linejoin:round;stroke-miterlimit:4;stroke-dasharray:none;stroke-opacity:1"/>
 <circle style="opacity:1;fill:#ff9f30;fill-opacity:1;stroke:none;stroke-width:2;stroke-linecap:round;stroke-linejoin:round;stroke-miterlimit:4;stroke-dasharray:none;stroke-opacity:1" id="path4171" cx="33" cy="27" r="6"/>
 <path style="color:#000000;font-style:normal;font-variant:normal;font-weight:normal;font-stretch:normal;font-size:medium;line-height:normal;font-family:sans-serif;text-indent:0;text-align:start;text-decoration:none;text-decoration-line:none;text-decoration-style:solid;text-decoration-color:#000000;letter-spacing:normal;word-spacing:normal;text-transform:none;direction:ltr;block-progression:tb;writing-mode:lr-tb;baseline-shift:baseline;text-anchor:start;white-space:normal;clip-rule:nonzero;display:inline;overflow:visible;visibility:visible;opacity:0.1;isolation:auto;mix-blend-mode:normal;color-interpolation:sRGB;color-interpolation-filters:linearRGB;solid-color:#000000;solid-opacity:1;fill:#000000;fill-opacity:1;fill-rule:nonzero;stroke:none;stroke-width:2;stroke-linecap:round;stroke-linejoin:round;stroke-miterlimit:4;stroke-dasharray:none;stroke-dashoffset:0;stroke-opacity:1;color-rendering:auto;image-rendering:auto;shape-rendering:auto;text-rendering:auto;enable-background:accumulate" id="circle4236" d="m 33,21 a 6,6 0 0 0 -6,6 6,6 0 0 0 6,6 6,6 0 0 0 6,-6 6,6 0 0 0 -6,-6 z m 0,1 c 2.773268,0 5,2.226732 5,5 0,2.773268 -2.226732,5 -5,5 -2.773268,0 -5,-2.226732 -5,-5 0,-2.773268 2.226732,-5 5,-5 z"/>
 <path style="opacity:1;fill:url(#linearGradient4193);fill-opacity:1;stroke:none;stroke-width:2;stroke-linecap:round;stroke-linejoin:round;stroke-miterlimit:4;stroke-dasharray:none;stroke-opacity:1" id="path4168" d="M 18,20 C 12.624213,20 7.6971923,23.74122 4.2929688,28.392578 5.9089862,37.811191 14.126536,45.000003 24,45 31.360445,45 37.785375,40.993823 41.257812,35.058594 33.701659,27.332034 23.680611,20 18,20 Z"/>
 <path style="color:#000000;font-style:normal;font-variant:normal;font-weight:normal;font-stretch:normal;font-size:medium;line-height:normal;font-family:sans-serif;text-indent:0;text-align:start;text-decoration:none;text-decoration-line:none;text-decoration-style:solid;text-decoration-color:#000000;letter-spacing:normal;word-spacing:normal;text-transform:none;direction:ltr;block-progression:tb;writing-mode:lr-tb;baseline-shift:baseline;text-anchor:start;white-space:normal;clip-rule:nonzero;display:inline;overflow:visible;visibility:visible;opacity:0.4;isolation:auto;mix-blend-mode:normal;color-interpolation:sRGB;color-interpolation-filters:linearRGB;solid-color:#000000;solid-opacity:1;fill:url(#linearGradient4234);fill-opacity:1;fill-rule:nonzero;stroke:none;stroke-width:4;stroke-linecap:round;stroke-linejoin:round;stroke-miterlimit:4;stroke-dasharray:none;stroke-dashoffset:0;stroke-opacity:1;color-rendering:auto;image-rendering:auto;shape-rendering:auto;text-rendering:auto;enable-background:accumulate" id="path4218" d="M 18,21 C 13.220207,21 8.6594187,24.332183 5.390625,28.644531 7.0994616,37.375775 14.764414,44.000003 24,44 30.715802,44 36.535669,40.442285 39.916016,35.173828 36.318798,31.567718 32.238031,28.065311 28.367188,25.460938 24.281295,22.711873 20.410068,21 18,21 Z m 0,1 c 1.979831,0 5.796667,1.591718 9.808594,4.291016 3.585519,2.412403 7.359992,5.652147 10.767578,9 C 35.315352,39.899762 30.071115,43 24,43 15.403514,43.000003 8.2804618,36.943194 6.4882812,28.900391 9.6095641,24.940254 13.801177,22 18,22 Z"/>
 <path style="color:#000000;font-style:normal;font-variant:normal;font-weight:normal;font-stretch:normal;font-size:medium;line-height:normal;font-family:sans-serif;text-indent:0;text-align:start;text-decoration:none;text-decoration-line:none;text-decoration-style:solid;text-decoration-color:#000000;letter-spacing:normal;word-spacing:normal;text-transform:none;direction:ltr;block-progression:tb;writing-mode:lr-tb;baseline-shift:baseline;text-anchor:start;white-space:normal;clip-rule:nonzero;display:inline;overflow:visible;visibility:visible;opacity:0.1;isolation:auto;mix-blend-mode:normal;color-interpolation:sRGB;color-interpolation-filters:linearRGB;solid-color:#000000;solid-opacity:1;fill:#000000;fill-opacity:1;fill-rule:nonzero;stroke:none;stroke-width:2;stroke-linecap:round;stroke-linejoin:round;stroke-miterlimit:4;stroke-dasharray:none;stroke-dashoffset:0;stroke-opacity:1;color-rendering:auto;image-rendering:auto;shape-rendering:auto;text-rendering:auto;enable-background:accumulate" id="path4211" d="M 18,20 C 12.624213,20 7.6971923,23.74122 4.2929688,28.392578 5.9089862,37.811191 14.126536,45.000003 24,45 31.360445,45 37.785376,40.993823 41.257812,35.058594 33.701659,27.332034 23.680611,20 18,20 Z m 0,1 c 2.410068,0 6.281295,1.711873 10.367188,4.460938 3.870843,2.604373 7.95161,6.10678 11.548828,9.71289 C 36.535669,40.442285 30.715802,44 24,44 14.764414,44.000003 7.0994616,37.375775 5.390625,28.644531 8.6594187,24.332183 13.220207,21 18,21 Z"/>
</svg>
